<svg xmlns="http://www.w3.org/2000/svg" xmlns:xlink="http://www.w3.org/1999/xlink" width="130.339" height="180" viewBox="0 0 130.339 180">
  <defs>
    <clipPath id="clip-path">
      <rect id="Rectangle_8331" data-name="Rectangle 8331" width="130.339" height="180" fill="none"/>
    </clipPath>
  </defs>
  <g id="Group_21886" data-name="Group 21886" transform="translate(-1 -27.001)">
    <g id="Group_21885" data-name="Group 21885" transform="translate(1 27.001)" clip-path="url(#clip-path)">
      <path id="Path_22133" data-name="Path 22133" d="M316.986,351.811c.235-.589.878-1.629.717-2.285h0c.182.569.371,1.135.556,1.712a16.122,16.122,0,0,0,2.893,5.28c.624.759,1.388,1.379,1.961,2.175a14.975,14.975,0,0,1,2.227,4.743,37.052,37.052,0,0,0,1.442,5.2,7.607,7.607,0,0,0,1.759,2.28c.113.11.228.218.342.327a2.29,2.29,0,0,0-.289.448c-.216.309-.533.53-.741.842a7.581,7.581,0,0,1-.635.827,14,14,0,0,1-1.631,1.575,12.234,12.234,0,0,1-1.091.813,17.72,17.72,0,0,1-4.178,1.609,36.8,36.8,0,0,1-4.675,1.209,21.811,21.811,0,0,1-8.3.151,12.024,12.024,0,0,1-1.185-.264c-1.239-.4-2.636-.355-3.782-.989-.693-.385-1.408-.728-2.1-1.117a12.514,12.514,0,0,1-2.407-1.65,6.084,6.084,0,0,1-1.773-2.18h-.025a22.952,22.952,0,0,0-.147-3.359c-.136-1.144-.335-2.28-.574-3.407a5.768,5.768,0,0,0-.448-1.858q.474.2.975.369a15.018,15.018,0,0,0,3.345.873c3.713.336,6.837-1.419,9.736-3.528a24.188,24.188,0,0,0,6.638-7,19.7,19.7,0,0,0,1.388-2.8" transform="translate(-250.54 -296.945)" fill="#f5a586"/>
      <path id="Path_22134" data-name="Path 22134" d="M157.348,497.974a8.818,8.818,0,0,1-2.533-.119,39.616,39.616,0,0,0-5.688-.463c.01-3.241-.244-6.484-.347-9.725a91.31,91.31,0,0,0-.853-11.575,52.381,52.381,0,0,1-.687-8.4c.006-2.771.225-5.487.239-8.276.01-2.022-.062-4.131-.214-6.155a14.062,14.062,0,0,1,1.473-2.623A10.1,10.1,0,0,1,152,447.989c1.193-.652,2.973-.852,3.925-1.778.1-.1.191-.171.278-.244a43.288,43.288,0,0,0,.174,6.8c.267,4.338.145,8.464,1.619,12.624.572,1.613,1.893,3.3,2.192,4.911a52.848,52.848,0,0,0,1.906,6.356,26.008,26.008,0,0,1,.842,2.964c.152.793.062,1.563,1.022,1.826a37.652,37.652,0,0,0,5.19.863,12.933,12.933,0,0,0,2.24.306c.644-.038,1.251-.355,1.9-.35.734,0,.989.209,1.363-.468.53-.96.155-2.746.006-3.787a14.238,14.238,0,0,0-1.269-4.17,59.117,59.117,0,0,1-2.072-5.658,18.362,18.362,0,0,1-.97-5.61,46.918,46.918,0,0,1-.026-8.573,28.619,28.619,0,0,0,.307-3.376h.025a6.088,6.088,0,0,0,1.773,2.18,12.517,12.517,0,0,0,2.407,1.649c.692.389,1.407.732,2.1,1.117,1.146.634,2.543.591,3.782.989a12.032,12.032,0,0,0,1.185.264,21.811,21.811,0,0,0,8.3-.151,36.767,36.767,0,0,0,4.675-1.209,17.717,17.717,0,0,0,4.178-1.609,12.154,12.154,0,0,0,1.091-.813,13.977,13.977,0,0,0,1.631-1.575,7.566,7.566,0,0,0,.635-.827c.208-.312.525-.532.741-.842a2.3,2.3,0,0,1,.289-.448c.234.225.468.45.692.687.262.275.523.861.949.6.571-.346.32-1.091.185-1.58a6.789,6.789,0,0,0-.531-1.322,3.7,3.7,0,0,0,.886-1.7c2.2.375,4.548-.4,6.637-1.19,1.371-.515,2.789-.949,4.148-1.478,1.566-.61,2.974-1.608,4.684-1.807a16.892,16.892,0,0,1,7.086.752c.867.282,3.6,1.409,4.97,1.048a1.331,1.331,0,0,0,.278-.1h0c.692.3,1.451.459,2.148.737a13.96,13.96,0,0,1,2.117,1.283,28.6,28.6,0,0,1,5.147,4.547c5.418,5.465,7.365,13.136,9,20.426,1.015,4.518.965,9.068,1.873,13.6a95.285,95.285,0,0,1,1.32,11.2c.131,1.62.1,3.235.292,4.842.258,2.221.259,3.778-2.267,3.87-1.852.067-3.729.143-5.6.147-1.191,0-2.382-.022-3.56-.1-4.337-.281-8.674-.569-13.017-.749-.686-.029-7.514-.464-9.637-.458-.536,1.415-1.1,2.822-1.488,4.232-.691,2.482-1.462,4.942-2.087,7.443-.537,2.154-.5,5.288-2.324,6.851-1.646,1.407-4.634.783-6.624.824a71.242,71.242,0,0,1-7.531-.06,105.394,105.394,0,0,0-11.712-.185c-3.689.1-7.419-.4-11.128-.472-1.258-.025-2.48.273-3.762.26-1.415-.014-2.826-.151-4.232-.3-3.432-.371-6.759-.411-10.093-1.51a18.18,18.18,0,0,0-4.323-1.107c1.178-4.346.98-8.831,1.141-13.364.057-1.573.136-3.145.21-4.718.03-.615-.108-1.188-.045-1.8.025-.245.064-.488.11-.73" transform="translate(-125.09 -375.056)" fill="#1477fa"/>
      <path id="Path_22135" data-name="Path 22135" d="M72.241,884.216a18.389,18.389,0,0,1-3.869.1c-2.374-.228-4.64-1.069-7.012-1.308-1.895-.191-3.968-.074-5.646-1.146-1.08-.688-1.388-2.861-1.185-4.212l.13.057a14.377,14.377,0,0,0,10.114.437,13.516,13.516,0,0,0,5.2-3.269c.755-.754,1.319-1.637,2.051-2.392a19.841,19.841,0,0,0,4.105-5.786,20.463,20.463,0,0,0,.985-2.826,18.173,18.173,0,0,1,4.323,1.107c3.334,1.1,6.661,1.139,10.093,1.51,1.406.152,2.817.29,4.232.3,1.282.013,2.5-.286,3.762-.261,3.709.073,7.439.569,11.128.472a105.424,105.424,0,0,1,11.712.185,71.259,71.259,0,0,0,7.531.061c1.99-.042,4.979.582,6.624-.824,1.826-1.562,1.787-4.7,2.324-6.85.625-2.5,1.4-4.961,2.087-7.443.393-1.41.952-2.817,1.488-4.232,2.124-.006,8.952.429,9.637.458,4.343.18,8.68.468,13.017.749,1.179.077,2.369.1,3.561.1-.142.327-.221.937-.347,1.275a18.982,18.982,0,0,0-.771,2.448c-.64,2.89-1.417,5.752-2.095,8.616-.5,2.094-.988,4.2-1.566,6.29-.873,3.155-1.849,6.332-3.035,9.415-.644,1.675-1.349,3.32-2.133,4.921a15.114,15.114,0,0,1-10.868,8.445c-1.032.165-2.055.51-3.088.59-2.832.218-5.667-.423-8.477-.654-4.811-.4-9.634-.9-14.43-1.516-5.844-.755-11.763-.639-17.64-1.319-5.932-.686-11.672-2.713-17.564-3.629a31.552,31.552,0,0,1-3.316-.433,16.141,16.141,0,0,0-3.816-.347,24.719,24.719,0,0,0-3.4.386c-1.282.167-2.563.386-3.847.532" transform="translate(-46.276 -720.339)" fill="#f5a586"/>
      <path id="Path_22136" data-name="Path 22136" d="M519.09,465.1a5.921,5.921,0,0,0,2.161.81,3.7,3.7,0,0,1-.886,1.7c-.088-.174-.181-.345-.278-.513-.429-.748-.921-1.471-1.32-2.238l.013-.006c.049.108.244.208.31.248" transform="translate(-440.727 -394.926)" fill="#f5a586"/>
      <path id="Path_22137" data-name="Path 22137" d="M165.846,72.69a6.79,6.79,0,0,1,.531,1.322c.135.489.386,1.234-.185,1.58-.425.258-.687-.327-.949-.6-.224-.236-.458-.462-.692-.687-.114-.11-.229-.218-.342-.327a7.607,7.607,0,0,1-1.759-2.28,37.073,37.073,0,0,1-1.442-5.2,14.98,14.98,0,0,0-2.227-4.743c-.574-.8-1.338-1.417-1.962-2.175a16.121,16.121,0,0,1-2.892-5.28c-.185-.578-.374-1.144-.556-1.713s-.357-1.144-.515-1.731c-.413-1.537-.613-3.121-.892-4.686a19.575,19.575,0,0,0-.93-3.588,18.84,18.84,0,0,0-1.458-3.226,9.327,9.327,0,0,0-1.059-1.886c-.746-.743-1.2-1.769-1.955-2.529-1.154-1.155-2.557-1.929-3.785-2.953-.385-.321-.54.06-.457.41a2.906,2.906,0,0,0,.578.949,8.785,8.785,0,0,1,1.316,2.3,3.208,3.208,0,0,1,.147,2.209,2.041,2.041,0,0,1-1.573.924.954.954,0,0,1-1.255-.676,11.474,11.474,0,0,0-1.035-2.073,8.056,8.056,0,0,0-3.333-3.006,10.226,10.226,0,0,0-3.124-.686,11.94,11.94,0,0,1-5.321-1.576c-2.116-1.306-2.886-3.671-4.239-5.632-1.081-1.569-2.817-3.33-4.748-1.906-.516.38-.735.757-1.379.9a3.827,3.827,0,0,0-2.588,3.119,1.914,1.914,0,0,0-1.207-.536,2.831,2.831,0,0,0-2.189,1.067,14.383,14.383,0,0,0-1.8,2.66c-.93,1.6-1.887,3.189-2.92,4.727-.264.392-.527.788-.809,1.168-.193.26-.444.437-.617.71-.484.76-.839,1.608-1.271,2.4-.2.362-.418.715-.648,1.063l-.058-.038c-2.222-2.046-2.76-7-2.782-9.851a44.665,44.665,0,0,1,.35-5.05,33.607,33.607,0,0,1,.442-3.987,17.444,17.444,0,0,1,2.068-5.386,39.634,39.634,0,0,1,3.5-4.438,48.4,48.4,0,0,1,3.7-4.081,21.1,21.1,0,0,1,4.78-3.159c.62-.321,1.287-.528,1.926-.808a8.633,8.633,0,0,0,1.4-.981,9.228,9.228,0,0,1,3.09-1.125c1.554-.35,3.152-.442,4.707-.777.6-.13,1.083-.439,1.686-.566a15.043,15.043,0,0,1,2.388-.228c1.376-.064,2.807.131,4.175.147a14.232,14.232,0,0,1,4.966,1.171,44.054,44.054,0,0,1,4.415,2.682,20.648,20.648,0,0,1,6.72,5.319,37.252,37.252,0,0,1,3.909,6.676c2.379,5.146,5.066,9.962,6.352,15.543a29.953,29.953,0,0,1,.429,3.1,20.859,20.859,0,0,0,.742,2.714,60.4,60.4,0,0,1,1.047,5.964,20.391,20.391,0,0,0,1.486,4.844,23.719,23.719,0,0,0,3.606,6.194,26.518,26.518,0,0,0,5.991,5.142,19.2,19.2,0,0,0,3.7,2.006c.652.235,1.334.318,1.99.508.734.212,1.441.538,2.17.769,2.311.73,4.616,1.326,6.88,2.281,1.522.642,3.534,1.571,4.168,3.236-1.365.361-4.1-.766-4.97-1.048a16.893,16.893,0,0,0-7.086-.752c-1.71.2-3.118,1.2-4.684,1.807-1.359.53-2.777.964-4.148,1.478-2.089.786-4.432,1.565-6.637,1.19a5.922,5.922,0,0,1-2.161-.81c-.065-.04-.261-.14-.31-.248l-.013.006c.4.768.891,1.49,1.32,2.238.1.168.19.34.278.513" transform="translate(-86.207 -0.001)" fill="#263238"/>
      <path id="Path_22138" data-name="Path 22138" d="M286.95,226.25c.278,1.061-1.194,1.31-1.876,1.558-.36.131-.735.219-1.1.346-.382.133-.723.346-1.107.482-.712.254-1.335.732-2.063.945-.533.155-1.205.53-1.773.308a.913.913,0,0,1-.483-1.134c.184-.648.737-.981,1.24-1.358a4.509,4.509,0,0,1,1.626-.8c.634-.148,1.227-.48,1.853-.684.372-.122.768-.155,1.125-.3a2.81,2.81,0,0,1,1.188-.307,1.54,1.54,0,0,1,1.368.941" transform="translate(-236.611 -191.413)" fill="#263238"/>
      <path id="Path_22139" data-name="Path 22139" d="M200.591,366.788a3.681,3.681,0,0,0,.5.57c1.683,1.691,3.269,3.475,4.977,5.138a22.474,22.474,0,0,0,4.159,3.661,36.522,36.522,0,0,0,4.391,2.4,5.76,5.76,0,0,1,.448,1.858c.239,1.127.438,2.263.574,3.407a22.969,22.969,0,0,1,.147,3.359,28.618,28.618,0,0,1-.307,3.376,46.92,46.92,0,0,0,.026,8.573,18.363,18.363,0,0,0,.97,5.61,59.126,59.126,0,0,0,2.072,5.658,14.237,14.237,0,0,1,1.269,4.169c.148,1.04.523,2.827-.006,3.787-.374.677-.629.472-1.363.468-.647-.005-1.253.312-1.9.35a12.933,12.933,0,0,1-2.24-.306,37.653,37.653,0,0,1-5.19-.863c-.96-.263-.869-1.033-1.022-1.826a26.014,26.014,0,0,0-.842-2.964,52.865,52.865,0,0,1-1.906-6.356c-.3-1.613-1.619-3.3-2.192-4.91-1.474-4.161-1.352-8.286-1.619-12.624a43.287,43.287,0,0,1-.174-6.8q.034-.368.087-.735a35.387,35.387,0,0,0,.4-6.908,26.607,26.607,0,0,0-.413-3.444c-.19-1.028-.569-2-.764-3.031-.053-.274-.239-.768-.274-1.12q.091-.251.185-.5" transform="translate(-170.258 -311.61)" fill="#263238"/>
      <path id="Path_22140" data-name="Path 22140" d="M8.253,308.025c-3.509-1.556-5.279-4.912-6.9-8.243C.342,297.711.505,294.843.318,292.6c-.7-8.4-.091-16.7.367-25.075.111-2.041.424-4.1.629-6.13.209-2.061.155-4.139.39-6.2.205-1.8.849-3.464,1.05-5.26a61.025,61.025,0,0,1,.971-7.368c.623-2.629.527-5.528.876-8.207a47,47,0,0,1,.691-4.872c.581-2.427,1.127-4.865,1.775-7.277.443-1.648.776-3.323,1.121-4.992.307-1.485.721-2.986,1.124-4.438s.367-3.026.886-4.464c.654-1.814,1.007-3.719,1.758-5.5.657-1.558,1.336-3.07,2.091-4.582.945-1.9,1.97-3.754,3.09-5.555.309-.5.647-.981.969-1.472.23-.349.45-.7.648-1.063.432-.79.786-1.638,1.271-2.4.172-.273.424-.449.616-.71.282-.38.545-.775.809-1.168,1.033-1.537,1.99-3.125,2.92-4.727a14.378,14.378,0,0,1,1.8-2.66,2.831,2.831,0,0,1,2.189-1.067,1.914,1.914,0,0,1,1.206.536,1.858,1.858,0,0,1,.5,1.14,3.744,3.744,0,0,1-.211,1.394c-.142.487-.362.927-.55,1.4s-.275.964-.494,1.425c-.37.779-.859,1.475-1.18,2.277a11.576,11.576,0,0,0-.638,1.433l.011.009a12.493,12.493,0,0,1,.9-1.108,40.411,40.411,0,0,0,2.647-3.256,12.951,12.951,0,0,1,2.061-2.362c1.088-.883,2.646-2.909,4.23-1.868,1.7,1.118.521,3.261-.308,4.528-.053.082-.108.162-.162.244l.028.044a2.371,2.371,0,0,1,1.691-.648,1.7,1.7,0,0,1,1.648,1.363,3.3,3.3,0,0,1,0,1.564,8.819,8.819,0,0,1-2.348,3.522.962.962,0,0,1-.128.245,2.429,2.429,0,0,1,.585-.235c.895-.224,2.014-.084,2.27.955a4.407,4.407,0,0,1-.829,3.006,12.853,12.853,0,0,1-1.137,1.507,17.536,17.536,0,0,1-1.258,1.488,25.187,25.187,0,0,0-2.629,3.221c-.306.442-.486.949-.814,1.392s-.769.844-1.061,1.315c-.213.345-.376.712-.6,1.059a15.6,15.6,0,0,0-1.39,2.737l-.06.159c-.063.164-.125.328-.185.5-1.008,2.775-1.759,5.922-3.285,8.372a21.568,21.568,0,0,1-2.905,3.874c-.856.86-1.69,1.444-1.9,2.768-.111.708-.088,1.491-.151,2.222a30.334,30.334,0,0,0,.24,4.965c.009.111.018.223.025.335.152,2.024.224,4.133.214,6.155-.014,2.789-.233,5.506-.239,8.276a52.381,52.381,0,0,0,.687,8.4,91.312,91.312,0,0,1,.853,11.575c.1,3.241.357,6.484.347,9.725a39.614,39.614,0,0,1,5.688.463,8.811,8.811,0,0,0,2.533.12c-.045.242-.084.484-.109.73-.063.609.076,1.181.045,1.8-.074,1.573-.153,3.145-.21,4.718-.161,4.533.037,9.018-1.141,13.364a20.468,20.468,0,0,1-.985,2.826,19.839,19.839,0,0,1-4.105,5.786c-.732.755-1.3,1.638-2.051,2.392a13.514,13.514,0,0,1-5.2,3.269,14.378,14.378,0,0,1-10.114-.437l-.13-.057" transform="translate(0 -150.72)" fill="#f5a586"/>
      <path id="Path_22141" data-name="Path 22141" d="M179.4,164.462a11.557,11.557,0,0,1,.638-1.433c.321-.8.81-1.5,1.18-2.277.219-.462.307-.954.494-1.426s.408-.91.55-1.4a3.745,3.745,0,0,0,.211-1.394,1.857,1.857,0,0,0-.5-1.14,3.827,3.827,0,0,1,2.588-3.119c.644-.138.863-.516,1.379-.9,1.931-1.424,3.668.337,4.748,1.906,1.352,1.96,2.122,4.325,4.239,5.631a11.939,11.939,0,0,0,5.321,1.577,10.221,10.221,0,0,1,3.124.686,8.057,8.057,0,0,1,3.333,3.006,11.476,11.476,0,0,1,1.035,2.073.954.954,0,0,0,1.254.676,2.041,2.041,0,0,0,1.573-.924,3.209,3.209,0,0,0-.147-2.209,8.787,8.787,0,0,0-1.316-2.3,2.9,2.9,0,0,1-.578-.949c-.083-.35.072-.731.457-.41,1.228,1.024,2.631,1.8,3.785,2.953.76.76,1.209,1.785,1.955,2.529a9.343,9.343,0,0,1,1.059,1.886,18.853,18.853,0,0,1,1.458,3.226,19.587,19.587,0,0,1,.93,3.588c.279,1.565.479,3.149.892,4.687.157.588.332,1.16.514,1.731h0c.161.655-.482,1.7-.717,2.285a19.7,19.7,0,0,1-1.388,2.8,24.187,24.187,0,0,1-6.638,7c-2.9,2.109-6.023,3.864-9.736,3.528a15.014,15.014,0,0,1-3.345-.873q-.5-.168-.975-.369a36.515,36.515,0,0,1-4.391-2.4,22.474,22.474,0,0,1-4.159-3.661c-1.709-1.663-3.294-3.447-4.977-5.138a3.68,3.68,0,0,1-.5-.57l.06-.159a15.581,15.581,0,0,1,1.39-2.736c.223-.347.386-.715.6-1.059.292-.471.731-.868,1.061-1.315s.508-.95.814-1.392a25.2,25.2,0,0,1,2.63-3.221,17.565,17.565,0,0,0,1.258-1.488,12.849,12.849,0,0,0,1.137-1.507,4.407,4.407,0,0,0,.829-3.006c-.255-1.039-1.375-1.179-2.27-.955a2.418,2.418,0,0,0-.585.235.966.966,0,0,0,.128-.245,8.82,8.82,0,0,0,2.348-3.522,3.3,3.3,0,0,0,0-1.564,1.7,1.7,0,0,0-1.648-1.363,2.371,2.371,0,0,0-1.691.648l-.028-.044c.054-.082.11-.162.162-.244.829-1.267,2.012-3.409.308-4.528-1.584-1.041-3.142.985-4.23,1.868a12.955,12.955,0,0,0-2.061,2.362,40.447,40.447,0,0,1-2.647,3.256,12.493,12.493,0,0,0-.9,1.108Zm21.475.1c.682-.248,2.154-.5,1.876-1.558a1.54,1.54,0,0,0-1.368-.941,2.811,2.811,0,0,0-1.188.307c-.357.142-.752.175-1.125.3-.627.2-1.219.536-1.853.684a4.509,4.509,0,0,0-1.626.8c-.5.376-1.057.71-1.24,1.358a.913.913,0,0,0,.483,1.134c.567.221,1.239-.153,1.773-.308.729-.213,1.351-.691,2.063-.945.384-.136.725-.349,1.107-.482.362-.127.737-.215,1.1-.346" transform="translate(-152.41 -128.163)" fill="#f5a586"/>
      <path id="Path_22142" data-name="Path 22142" d="M350.215,397.313a23.281,23.281,0,0,0,11.826-13.772,6.07,6.07,0,0,1-1.141,1.486q-.628.772-1.3,1.5a33.144,33.144,0,0,1-2.867,2.759,26.258,26.258,0,0,1-3.114,2.226,13.366,13.366,0,0,1-5.84,2.063c-3.055.383-6.229-.685-6.379-.53a14.824,14.824,0,0,0,.492,2.68c.017.233,0-.234,0,0,0,.257,5.571,1.783,8.326,1.583" transform="translate(-296.831 -325.843)" fill="#e7845e"/>
      <path id="Path_22143" data-name="Path 22143" d="M405.37,1059.023c3.288.163,6.673.192,9.758-.956,4.475-1.665,7.6-5.48,10.231-9.577a13.711,13.711,0,0,1,.04-5.478l-.1-.036c-.644,1.674-1.349,3.32-2.133,4.921a15.115,15.115,0,0,1-10.868,8.445c-1.031.165-2.055.51-3.088.59-2.832.218-5.667-.423-8.477-.654-4.811-.4-9.633-.9-14.43-1.516-5.844-.755-11.763-.639-17.641-1.319-.967-.112-1.929-.26-2.887-.432,6.441,2.424,13.4,3.289,20.259,4.125,6.428.783,12.863,1.567,19.33,1.888" transform="translate(-310.754 -886.076)" fill="#263238"/>
      <path id="Path_22144" data-name="Path 22144" d="M255.781,1085.974a22.258,22.258,0,0,1-1.405-3.714c-.21-.836-.407-1.722-.555-2.627-2.632,4.1-5.756,7.911-10.231,9.577-3.085,1.148-6.47,1.119-9.758.956-6.468-.321-12.9-1.1-19.33-1.888-6.857-.835-13.818-1.7-20.259-4.125-4.92-.885-9.745-2.43-14.677-3.2a31.682,31.682,0,0,1-3.316-.433,16.147,16.147,0,0,0-3.816-.347,24.719,24.719,0,0,0-3.4.386c-1.282.167-2.563.386-3.847.532-.206,1.062-.132,2.189-.289,3.256-.182,1.227-.435,2.442-.632,3.667-.292,1.833-.746,3.806.068,5.541.9,1.914,2.275,3.4,4.478,3.62a8.579,8.579,0,0,0,2.158-.068c1.327-.2,2.59-.638,3.939-.965,2.37-.575,4.724.068,7.072-.274,2.908-.424,5.774-1.154,8.7-1.452l.313-.03a43.19,43.19,0,0,1,5.63.175,12.28,12.28,0,0,0,2.738-.087,20.988,20.988,0,0,1,2.208-.415c.166.072.328.148.488.235a13.228,13.228,0,0,0,2.475.815,22.831,22.831,0,0,0,2.95.739l.3.052a14.716,14.716,0,0,0,5.3.148c1.667-.364,3.392-.322,5.066-.613,1.613-.281,3.324-.271,4.963-.478,3.449-.437,6.876-1.078,10.353-1.261,4.264-.225,8.484-.16,12.736-1.044a10.539,10.539,0,0,1,2.231-.221c9.536-.406,8.148-4.7,7.361-6.461" transform="translate(-139.216 -917.218)" fill="#1477fa"/>
      <path id="Path_22145" data-name="Path 22145" d="M160.578,224.236a.376.376,0,0,1-.28-.627,16.6,16.6,0,0,0,1.116-1.451c.164-.231.329-.462.5-.689.3-.408.63-.795.945-1.169.268-.318.544-.648.8-.983.187-.243.389-.47.585-.69.226-.253.439-.493.624-.748a13.454,13.454,0,0,1,1.725-2.009,11.143,11.143,0,0,0,.911-.985c.172-.2.35-.41.536-.61a11.446,11.446,0,0,1,.915-.855c.264-.229.514-.446.749-.686.277-.283.553-.578.821-.864.43-.46.874-.935,1.342-1.379a3.114,3.114,0,0,1,2.345-1.079,2.061,2.061,0,0,1,1.99,1.658,3.677,3.677,0,0,1,0,1.727,9.263,9.263,0,0,1-2.4,3.666,1.6,1.6,0,0,1-.39.519.376.376,0,1,1-.509-.554.783.783,0,0,0,.231-.319.375.375,0,0,1,.119-.168,8.522,8.522,0,0,0,2.216-3.311,2.913,2.913,0,0,0,0-1.4,1.327,1.327,0,0,0-1.306-1.065,2.371,2.371,0,0,0-1.774.874c-.452.429-.888.9-1.311,1.348-.27.289-.55.588-.833.877-.257.262-.53.5-.794.728a10.643,10.643,0,0,0-.856.8c-.175.189-.348.392-.516.588a11.915,11.915,0,0,1-.974,1.05,12.374,12.374,0,0,0-1.625,1.9c-.208.286-.444.551-.672.807-.187.21-.38.427-.551.648-.268.349-.55.684-.823,1.009-.308.366-.626.745-.918,1.135-.166.222-.327.449-.488.675a17.149,17.149,0,0,1-1.168,1.517.375.375,0,0,1-.28.125" transform="translate(-136.102 -177.902)" fill="#fa844b"/>
      <path id="Path_22146" data-name="Path 22146" d="M139.775,196.115a.376.376,0,0,1-.224-.678,12.3,12.3,0,0,0,1.9-1.974c.377-.451.767-.918,1.16-1.316a16.3,16.3,0,0,0,1.782-2.3,18.645,18.645,0,0,1,1.657-2.186,40.773,40.773,0,0,0,2.622-3.227l.134-.179A12.225,12.225,0,0,1,150.8,182c.192-.156.407-.356.633-.567,1.057-.984,2.5-2.333,4.04-1.324,2.171,1.426.386,4.152-.2,5.048-.054.083-.109.165-.164.247a.376.376,0,1,1-.625-.419q.08-.12.16-.241c1.337-2.043,1.469-3.316.417-4.008-.966-.634-1.941.151-3.114,1.245-.237.221-.46.429-.672.6a11.658,11.658,0,0,0-1.863,2.116l-.135.18a41.445,41.445,0,0,1-2.671,3.286,18.092,18.092,0,0,0-1.588,2.1,16.843,16.843,0,0,1-1.868,2.406c-.371.375-.734.809-1.117,1.269a12.813,12.813,0,0,1-2.031,2.1.375.375,0,0,1-.224.074" transform="translate(-118.428 -152.715)" fill="#fa844b"/>
      <path id="Path_22147" data-name="Path 22147" d="M177.276,188.443a.376.376,0,0,1-.366-.464,4.357,4.357,0,0,1,.4-.965c.094-.182.183-.354.249-.52a11.378,11.378,0,0,1,.694-1.372c.17-.3.346-.612.5-.927a5.317,5.317,0,0,0,.27-.758c.063-.21.129-.427.215-.644.061-.153.125-.3.189-.452a8.046,8.046,0,0,0,.349-.912,3.438,3.438,0,0,0,.2-1.249,1.5,1.5,0,0,0-.381-.9.376.376,0,0,1,.545-.519,2.257,2.257,0,0,1,.585,1.344,4.05,4.05,0,0,1-.224,1.538,8.74,8.74,0,0,1-.38,1c-.061.143-.123.287-.182.434-.074.187-.132.379-.194.583a5.989,5.989,0,0,1-.311.864c-.161.339-.344.662-.52.974a10.637,10.637,0,0,0-.651,1.281c-.08.2-.181.4-.279.586a3.749,3.749,0,0,0-.341.8.376.376,0,0,1-.366.289" transform="translate(-150.287 -151.768)" fill="#fa844b"/>
      <path id="Path_22148" data-name="Path 22148" d="M157.041,825.227a.376.376,0,0,1-.325-.185,5.58,5.58,0,0,1-.434-3.436,8.221,8.221,0,0,0,.019-1.906,7.832,7.832,0,0,0-.18-.8,5.514,5.514,0,0,1-.239-1.488c0-.519.049-1.037.1-1.537.036-.4.073-.8.087-1.2s.022-.813.026-1.232a.376.376,0,0,1,.376-.372h0a.376.376,0,0,1,.373.38c0,.424-.013.845-.027,1.25s-.052.839-.089,1.245c-.044.484-.09.985-.092,1.472a4.847,4.847,0,0,0,.215,1.295,8.576,8.576,0,0,1,.2.874,8.9,8.9,0,0,1-.013,2.084,4.951,4.951,0,0,0,.333,2.992.376.376,0,0,1-.324.567" transform="translate(-132.432 -690.756)" fill="#e7845e"/>
      <path id="Path_22149" data-name="Path 22149" d="M184.168,269.274a.376.376,0,0,1-.35-.513,15.891,15.891,0,0,1,1.425-2.8c.11-.172.2-.35.305-.538.09-.169.184-.344.29-.516a6.2,6.2,0,0,1,.647-.824c.156-.176.3-.343.431-.516a5.139,5.139,0,0,0,.407-.691,6.329,6.329,0,0,1,.4-.691,25.4,25.4,0,0,1,2.668-3.268,17.22,17.22,0,0,0,1.231-1.457c.116-.151.243-.3.366-.451a6.891,6.891,0,0,0,.74-1.008l.019-.035a4.042,4.042,0,0,0,.774-2.7.88.88,0,0,0-.408-.576,1.926,1.926,0,0,0-1.405-.1,5.007,5.007,0,0,0-2.042,1.542c-.134.141-.265.277-.391.4-.24.239-.486.469-.724.692-.4.377-.784.733-1.143,1.134-.565.632-1.107,1.31-1.631,1.966-.555.7-1.129,1.415-1.74,2.089-.245.271-.487.544-.73.818-.532.6-1.082,1.222-1.659,1.807a.376.376,0,0,1-.536-.528c.563-.571,1.106-1.184,1.631-1.778.244-.276.488-.551.735-.824.595-.657,1.161-1.367,1.71-2.054.53-.664,1.078-1.35,1.658-2,.381-.426.792-.81,1.19-1.182.234-.219.476-.445.707-.675.122-.122.248-.253.378-.39a5.513,5.513,0,0,1,2.4-1.752,2.639,2.639,0,0,1,1.976.189,1.64,1.64,0,0,1,.75,1.041,4.644,4.644,0,0,1-.846,3.241l-.019.035a7.438,7.438,0,0,1-.82,1.126c-.124.149-.241.29-.349.431a17.813,17.813,0,0,1-1.286,1.521,24.674,24.674,0,0,0-2.591,3.174,5.732,5.732,0,0,0-.351.611,5.806,5.806,0,0,1-.469.79c-.147.2-.312.386-.471.567a5.536,5.536,0,0,0-.572.722c-.094.151-.178.308-.266.475-.1.193-.21.392-.336.589a15.131,15.131,0,0,0-1.357,2.671.376.376,0,0,1-.351.24" transform="translate(-153.775 -213.878)" fill="#fa844b"/>
      <path id="Path_22152" data-name="Path 22152" d="M427.859,252.638a.376.376,0,0,1-.332-.2,7.862,7.862,0,0,1-.675-1.617c-.271-.969-.446-1.966-.615-2.93-.164-.935-.333-1.9-.589-2.825a7.732,7.732,0,0,0-1.078-2.541,8.925,8.925,0,0,1-.656-1.068,6.433,6.433,0,0,0-.805-1.234c-.354-.394-.687-.819-1.009-1.23-.167-.213-.333-.425-.5-.633a11.013,11.013,0,0,1-2.268-4.2c-.343-1.307-.634-2.675-.916-4-.709-3.33-1.443-6.774-3.074-9.724a34.12,34.12,0,0,0-2.061-3.15c-.519-.733-1.055-1.49-1.542-2.268a.376.376,0,1,1,.638-.4c.476.76,1.006,1.509,1.518,2.232A34.764,34.764,0,0,1,416,220.081c1.685,3.048,2.431,6.547,3.152,9.931.28,1.315.57,2.674.908,3.964a10.294,10.294,0,0,0,2.124,3.912c.172.211.341.427.51.644.314.4.639.816.976,1.19a7.09,7.09,0,0,1,.9,1.374,8.234,8.234,0,0,0,.6.98,8.371,8.371,0,0,1,1.2,2.791c.266.958.439,1.943.605,2.9s.337,1.925.6,2.857a7.132,7.132,0,0,0,.614,1.464.376.376,0,0,1-.331.554" transform="translate(-349.748 -182.19)" fill="#455a64"/>
      <path id="Path_22153" data-name="Path 22153" d="M638.4,657.592a.376.376,0,0,1-.353-.507,21.025,21.025,0,0,0,1.3-4.78,38.912,38.912,0,0,1,1.14-5.325c.334-1.266.679-2.575.916-3.864.9-4.876,2.274-9.739,3.606-14.441.4-1.4.81-2.858,1.2-4.288a.376.376,0,1,1,.725.2c-.393,1.433-.8,2.887-1.2,4.294-1.327,4.686-2.7,9.532-3.591,14.372-.242,1.316-.591,2.64-.928,3.919a38.332,38.332,0,0,0-1.121,5.221,21.685,21.685,0,0,1-1.34,4.954.376.376,0,0,1-.353.246" transform="translate(-542.038 -530.222)" fill="#263238"/>
      <path id="Path_22154" data-name="Path 22154" d="M336.751,1151.336a.376.376,0,0,1-.141-.027c-.144-.058-.289-.114-.434-.169s-.317-.121-.474-.185c-.672-.272-1.354-.537-2.014-.794-1.171-.455-2.381-.926-3.567-1.449-1.928-.852-4.164-1.695-6.315-.911a.376.376,0,1,1-.258-.707c2.414-.88,4.815.018,6.877.929,1.17.517,2.372.984,3.535,1.436.663.258,1.348.524,2.024.8.153.062.307.121.461.18s.3.115.446.174a.376.376,0,0,1-.141.725" transform="translate(-274.665 -974.225)" fill="#263238"/>
      <path id="Path_22155" data-name="Path 22155" d="M255.554,308.973a2.534,2.534,0,0,1-.731-.108c-1.226-.368-1.545-1.969-1.756-3.029-.029-.143-.055-.279-.083-.4-.15-.675-.274-1.324-.4-2.012l-.032-.168a8.315,8.315,0,0,0-.357-1.3,8.524,8.524,0,0,0-1.212-2.426.377.377,0,0,1-.079-.192.388.388,0,0,1,.275-.466.462.462,0,0,1,.5.325A9.578,9.578,0,0,1,252.9,301.7a9.166,9.166,0,0,1,.388,1.41l.032.168c.13.682.253,1.327.4,1.991.028.128.056.268.086.417.187.936.442,2.218,1.235,2.456,1.386.416,2.527-.972,2.953-1.588a.376.376,0,1,1,.618.428,3.923,3.923,0,0,1-3.057,1.989m-4.24-10.057Zm0,0Zm0,0h0Zm0,0h0Zm0,0h0m0,0h0Z" transform="translate(-213.151 -253.9)" fill="#263238"/>
      <path id="Path_22156" data-name="Path 22156" d="M304.555,370.967a.376.376,0,0,1-.087-.742,6.966,6.966,0,0,0,1.768-.839c.3-.176.606-.358.909-.508.147-.073.3-.146.451-.22a10.363,10.363,0,0,0,1.806-1.025.376.376,0,1,1,.46.595,10.912,10.912,0,0,1-1.938,1.107c-.15.073-.3.145-.443.217-.279.139-.562.306-.862.483a7.506,7.506,0,0,1-1.975.923.377.377,0,0,1-.088.01" transform="translate(-258.42 -312.261)" fill="#263238"/>
      <path id="Path_22157" data-name="Path 22157" d="M312.1,273.355a.575.575,0,0,0-.2-.073c-.324-.065-.6.213-.835.45-1.015,1.042-2.845,2.212-4.371,1.906-.221-.044-.376.209-.36.433a.593.593,0,0,0,.42.479,1.511,1.511,0,0,0,.668.03,7.6,7.6,0,0,0,4.5-2.235c.226-.233.513-.772.17-.989" transform="translate(-260.255 -232.162)" fill="#263238"/>
      <path id="Path_22158" data-name="Path 22158" d="M254.566,455.028a.376.376,0,0,1-.375-.361,30.878,30.878,0,0,0-.814-5.2,25.841,25.841,0,0,1-.827-6.477,56.5,56.5,0,0,0-.5-9.976.376.376,0,1,1,.746-.1,57.213,57.213,0,0,1,.507,10.1,25.272,25.272,0,0,0,.811,6.288,31.432,31.432,0,0,1,.83,5.327.376.376,0,0,1-.36.391h-.016" transform="translate(-214.129 -367.513)" fill="#455a64"/>
      <path id="Path_22159" data-name="Path 22159" d="M536.381,390.956c-2.046,0-5.453-2.156-5.6-2.251a9.754,9.754,0,0,1-3.884-5.583.376.376,0,0,1,.744-.113,9.169,9.169,0,0,0,3.544,5.061c1.432.913,4.04,2.232,5.348,2.127a.376.376,0,1,1,.06.75c-.068.006-.139.008-.211.008" transform="translate(-447.628 -325.12)" fill="#455a64"/>
      <path id="Path_22160" data-name="Path 22160" d="M263.4,79.316a.374.374,0,0,1-.185-.049,17.331,17.331,0,0,0-5.1-1.527c-.614-.119-1.194-.232-1.752-.362A48.642,48.642,0,0,1,248.4,74.5l-.51-.218a31.116,31.116,0,0,1-3.114-1.618,23.479,23.479,0,0,0-3.958-1.935c-2.366-.8-4.554-.525-6.871-.232-.677.086-1.377.174-2.087.235a.376.376,0,1,1-.065-.749c.695-.06,1.387-.147,2.057-.232,2.405-.3,4.677-.591,7.207.266a24.042,24.042,0,0,1,4.089,1.993,30.589,30.589,0,0,0,3.038,1.58l.51.218a48.092,48.092,0,0,0,7.837,2.834c.545.126,1.118.238,1.725.356a17.851,17.851,0,0,1,5.331,1.611.376.376,0,0,1-.186.7" transform="translate(-196.634 -59.004)" fill="#455a64"/>
      <path id="Path_22161" data-name="Path 22161" d="M388.657,178.4a.376.376,0,0,1-.246-.091c-4.384-3.785-8.843-5.919-13.255-6.345a.376.376,0,1,1,.072-.749c4.569.44,9.17,2.635,13.674,6.524a.376.376,0,0,1-.246.661" transform="translate(-318.431 -145.453)" fill="#455a64"/>
      <path id="Path_22162" data-name="Path 22162" d="M126.193,168.786a.376.376,0,0,1-.363-.474,37.5,37.5,0,0,1,3.72-8.684.376.376,0,1,1,.651.376,36.736,36.736,0,0,0-3.645,8.5.376.376,0,0,1-.363.279" transform="translate(-106.889 -135.455)" fill="#455a64"/>
      <path id="Path_22163" data-name="Path 22163" d="M171.776,540.4a.376.376,0,0,1-.356-.256c-.514-1.525-.961-3.167-1.393-4.755-.207-.763-.422-1.551-.639-2.309a21.153,21.153,0,0,0-2.322-4.926c-.308-.528-.626-1.074-.935-1.64a.376.376,0,0,1,.66-.36c.3.557.619,1.1.924,1.621a21.737,21.737,0,0,1,2.395,5.1c.219.763.434,1.554.642,2.319.429,1.577.873,3.208,1.38,4.712a.376.376,0,0,1-.357.5" transform="translate(-141.1 -446.839)" fill="#263238"/>
      <path id="Path_22164" data-name="Path 22164" d="M164.814,618.737a.373.373,0,0,1-.147-.03c-.237-.1-.482-.2-.741-.3a6.969,6.969,0,0,1-3.113-1.91.376.376,0,0,1,.6-.46,6.335,6.335,0,0,0,2.793,1.67c.253.1.514.2.761.307a.376.376,0,0,1-.148.722" transform="translate(-136.554 -523.24)" fill="#263238"/>
      <path id="Path_22165" data-name="Path 22165" d="M206.388,1144.25a.374.374,0,0,1-.108-.016,16.1,16.1,0,0,0-5.313-.31,20.1,20.1,0,0,1-4.979-.173.376.376,0,0,1,.153-.737,19.545,19.545,0,0,0,4.791.159,16.9,16.9,0,0,1,5.564.341.376.376,0,0,1-.107.736" transform="translate(-166.25 -971.058)" fill="#263238"/>
      <path id="Path_22166" data-name="Path 22166" d="M212.584,697.737a.383.383,0,0,1-.073-.007.376.376,0,0,1-.3-.442c.022-.113.045-.226.068-.339.062-.3.126-.615.171-.921a14.532,14.532,0,0,0,.159-2.652,9.214,9.214,0,0,1,.135-1.584,9.569,9.569,0,0,0,.129-1.316c.009-1.888.036-3.916.179-5.954.027-.385.067-.818.11-1.277.19-2.044.45-4.843-.252-6.284a.376.376,0,0,1,.676-.33c.795,1.63.534,4.432.325,6.683-.042.455-.082.884-.109,1.26-.141,2.016-.168,4.029-.177,5.9a10.292,10.292,0,0,1-.137,1.419,8.507,8.507,0,0,0-.127,1.455,15.272,15.272,0,0,1-.167,2.786c-.049.325-.114.647-.178.96-.023.111-.045.222-.067.333a.376.376,0,0,1-.369.3" transform="translate(-180.284 -574.664)" fill="#263238"/>
      <path id="Path_22167" data-name="Path 22167" d="M59.286,968.223a14.949,14.949,0,0,1-5.834-1.185.376.376,0,1,1,.295-.692,13.968,13.968,0,0,0,9.845.427,13.108,13.108,0,0,0,5.06-3.179,14.251,14.251,0,0,0,1.048-1.216c.313-.392.636-.8,1-1.172a19.176,19.176,0,0,0,4.031-5.674,20.18,20.18,0,0,0,.924-2.616.376.376,0,0,1,.725.2,20.958,20.958,0,0,1-.959,2.714,19.885,19.885,0,0,1-4.181,5.9c-.338.349-.636.722-.951,1.117a14.859,14.859,0,0,1-1.1,1.28,13.852,13.852,0,0,1-5.349,3.359,14.139,14.139,0,0,1-4.548.738" transform="translate(-45.216 -809.33)" fill="#e7845e"/>
    </g>
  </g>
</svg>
