<svg xmlns="http://www.w3.org/2000/svg" xmlns:xlink="http://www.w3.org/1999/xlink" width="146.587" height="156.289" viewBox="0 0 146.587 156.289">
  <defs>
    <clipPath id="clip-path">
      <rect id="Rectangle_8106" data-name="Rectangle 8106" width="70.688" height="59.698" fill="none"/>
    </clipPath>
  </defs>
  <g id="Group_22732" data-name="Group 22732" transform="translate(-110 -318.711)">
    <g id="trophy_1_" data-name="trophy (1)" transform="translate(49.863 318.711)">
      <g id="Group_22213" data-name="Group 22213" transform="translate(60.137 21.253)">
        <path id="Path_22244" data-name="Path 22244" d="M337.195,128.244a3.15,3.15,0,0,1-1.521-5.91c13.919-7.654,24.723-19.763,32.112-35.992a91.723,91.723,0,0,0,7.868-27.872H349.436a3.15,3.15,0,1,1,0-6.3h27.5a5.16,5.16,0,0,1,3.7,1.57,4.953,4.953,0,0,1,1.395,3.657c-.485,12.365-9.487,51.849-43.326,70.456A3.122,3.122,0,0,1,337.195,128.244ZM376.936,58.47h0Z" transform="translate(-235.451 -52.17)" fill="#f3a656"/>
        <path id="Path_22245" data-name="Path 22245" d="M104.982,128.245a3.139,3.139,0,0,1-1.515-.39C69.628,109.247,60.626,69.763,60.141,57.4a4.954,4.954,0,0,1,1.4-3.657,5.16,5.16,0,0,1,3.7-1.569h27.5a3.15,3.15,0,0,1,0,6.3H66.521A91.741,91.741,0,0,0,74.39,86.344c7.389,16.228,18.194,28.338,32.112,35.992a3.15,3.15,0,0,1-1.52,5.909Z" transform="translate(-60.137 -52.171)" fill="#f3a656"/>
      </g>
      <path id="Path_22246" data-name="Path 22246" d="M204.335,103.714a78.07,78.07,0,0,0,16.35-47.8V20.583h-83.4V55.916a78.072,78.072,0,0,0,16.35,47.8c6.539,8.452,17.113,22.719,17.113,22.719,2.45,9.857-8.336,25.028-18.528,25.028h0a3.361,3.361,0,0,0-3.367,3.355v13.671h60.26V154.815a3.361,3.361,0,0,0-3.367-3.355h0c-10.193,0-20.978-15.172-18.528-25.028C187.221,126.433,197.8,112.166,204.335,103.714Z" transform="translate(-45.722 -12.198)" fill="#f9c861"/>
      <path id="Path_22247" data-name="Path 22247" d="M277.634,103.714c12.055-13.48,18.9-30.215,18.9-47.8V20.583H278.158V55.916c0,17.583-6.843,34.318-18.9,47.8-7.558,8.452-15.91,22.108-15.91,22.108v5.034c1,9.406,7.424,20.605,17.546,20.605h0a3.653,3.653,0,0,1,3.892,3.355v13.671h18.373V154.816a3.653,3.653,0,0,0-3.892-3.355h0c-11.78,0-24.246-15.172-21.414-25.028C257.855,126.433,270.076,112.166,277.634,103.714Z" transform="translate(-117.69 -12.198)" fill="#f3a656"/>
      <path id="Path_22250" data-name="Path 22250" d="M214.493,12.784H117.065A2.208,2.208,0,0,1,115,10.456V2.328A2.208,2.208,0,0,1,117.065,0h97.428a2.208,2.208,0,0,1,2.064,2.328v8.128A2.208,2.208,0,0,1,214.493,12.784Z" transform="translate(-32.514)" fill="#f3a656"/>
      <path id="Path_22251" data-name="Path 22251" d="M366.776,0H350.488V12.784h16.288a2.328,2.328,0,0,0,2.328-2.328V2.328A2.328,2.328,0,0,0,366.776,0Z" transform="translate(-185.06)" fill="#ed864a"/>
      <path id="Path_22254" data-name="Path 22254" d="M246.122,333.261H217.21a2.272,2.272,0,0,1-2.272-2.272V322.55a2.272,2.272,0,0,1,2.272-2.272h28.912a2.272,2.272,0,0,1,2.272,2.272v8.439A2.272,2.272,0,0,1,246.122,333.261Z" transform="translate(-98.234 -205.601)" fill="#f3a656"/>
      <path id="Path_22255" data-name="Path 22255" d="M265.232,330.989V322.55a2.272,2.272,0,0,0-2.271-2.272h-19.61v5.84a38.08,38.08,0,0,0,1.371,7.143h18.239A2.272,2.272,0,0,0,265.232,330.989Z" transform="translate(-115.619 -205.601)" fill="#ed864a"/>
    </g>
    <g id="Group_22214" data-name="Group 22214" transform="translate(30.783 13.311)">
      <g id="Group_20847" data-name="Group 20847" transform="translate(144.217 390.31)" opacity="0.3">
        <g id="Group_20846" data-name="Group 20846" clip-path="url(#clip-path)">
          <path id="Path_22072" data-name="Path 22072" d="M142.061,152.807c3.19-7.787.806-17.215-4.883-23.416s-14.205-9.354-22.615-9.65a40.46,40.46,0,0,0-37.02,59.674s6.829-.326,11.9-2.914,52.619-23.694,52.619-23.694" transform="translate(-72.802 -119.718)"/>
        </g>
      </g>
      <path id="Path_22073" data-name="Path 22073" d="M142.913,161.222a32.093,32.093,0,1,1-28.453-35.36,32.093,32.093,0,0,1,28.453,35.36" transform="translate(72.681 271.825)" fill="#6dfc3a"/>
      <path id="Path_22074" data-name="Path 22074" d="M106.465,169.549,89.819,155.6l4.867-5.809,11.162,9.352,17.118-18.195,5.518,5.193Z" transform="translate(74.94 274.99)"/>
    </g>
  </g>
</svg>
