<svg id="Group_20852" data-name="Group 20852" xmlns="http://www.w3.org/2000/svg" xmlns:xlink="http://www.w3.org/1999/xlink" width="154.539" height="180" viewBox="0 0 154.539 180">
  <defs>
    <clipPath id="clip-path">
      <rect id="Rectangle_8108" data-name="Rectangle 8108" width="154.539" height="180" fill="none"/>
    </clipPath>
    <clipPath id="clip-path-3">
      <rect id="Rectangle_8106" data-name="Rectangle 8106" width="58.935" height="49.773" fill="none"/>
    </clipPath>
  </defs>
  <g id="Group_20851" data-name="Group 20851" clip-path="url(#clip-path)">
    <g id="Group_20850" data-name="Group 20850">
      <g id="Group_20849" data-name="Group 20849" clip-path="url(#clip-path)">
        <path id="Path_22037" data-name="Path 22037" d="M141.815,96.294A70.681,70.681,0,1,1,68.069,28.818a70.681,70.681,0,0,1,73.746,67.476" transform="translate(0.003 0.185)" fill="#fff"/>
        <path id="Path_22038" data-name="Path 22038" d="M131.832,85.414l.81,30.1L121.908,98.979,96.75,98.741l5.622,9.965c5.871,8.71,9.437,16.033,17.16,24.395,3.85,4.169,7.434,9.986,9.186,11.212,4.191,2.932,10.481,5.289,15.949.558,7.625-6.6,6.717-19.3,4.312-32.273-2.672-14.4-4.073-28.287-4.073-28.287Z" transform="translate(0.622 0.542)" fill="#ffc09d"/>
        <path id="Path_22039" data-name="Path 22039" d="M134.63,67.438s-2.318-4.479-4.161-4.072-4.327,2.052-4.632,3.553.1,2.856.8,2.8a11.422,11.422,0,0,0,2.727-1.4l2.356,3.314-1.048,4.185-2.453,1.26-1.41-2.926.574-3.3s-1.667-1.414-2.6,1.231-2,7.412.662,9.713a78.749,78.749,0,0,0,7.691,5.429L145.175,86.2l2.884-14.171s4.806-4.886,5.113-6.876.573-8.093.573-8.093a1.447,1.447,0,0,0-2.276.612c-.831,1.688-1.637,6.606-1.637,6.606l-4.014,3.874,1.58-17.368s-2.417-1.567-3.408,2.336-2.073,13.555-2.562,13.552-1.951-.006-1.738-2.015-.45-17.489-.45-17.489-3.477.759-3.263,4.028.086,13.5.027,14.274-1.374,1.969-1.374,1.969" transform="translate(0.795 0.303)" fill="#ffc09d"/>
        <path id="Path_22040" data-name="Path 22040" d="M134.566,130.082a37.056,37.056,0,0,1-1.479-7.373,37.99,37.99,0,0,1-.547-7.551,72.129,72.129,0,0,1,1.116,7.443,72.736,72.736,0,0,1,.911,7.482" transform="translate(0.851 0.74)" fill="#ff9b6c"/>
        <path id="Path_22041" data-name="Path 22041" d="M137.981,82.025c-.09.024-.265-.478-.689-1.194a7.958,7.958,0,0,0-5.083-3.693c-.812-.182-1.345-.193-1.349-.287a2.438,2.438,0,0,1,1.415-.115,6.866,6.866,0,0,1,5.378,3.907c.356.813.391,1.368.328,1.381" transform="translate(0.841 0.493)" fill="#ff9b6c"/>
        <path id="Path_22042" data-name="Path 22042" d="M45.027,82.583l16.2-1.644,27.522,1.2,12.533,4.324L83.839,104.12,60.8,101.25,50.466,95.392Z" transform="translate(0.289 0.52)" fill="#ffc09d"/>
        <path id="Path_22043" data-name="Path 22043" d="M81.514,14.488c2.837-1.8,3.521-5.979,1.985-8.967S78.7.72,75.38.184A15.47,15.47,0,0,0,62.055,4.6c-1.831,1.886-3.313,4.346-5.8,5.209-2.182.76-4.6.074-6.887.371a10.4,10.4,0,0,0-7.279,5.249,22.43,22.43,0,0,0-2.588,8.853c-.334,2.823-.555,5.921-2.513,7.982-1.909,2.009-4.926,2.435-7.3,3.864a9.995,9.995,0,0,0-2.968,13.651c.941,1.372,2.291,2.629,2.4,4.288.1,1.515-.88,2.864-1.338,4.312a6.746,6.746,0,0,0,5.772,8.376c1.971.113,4.081-.655,5.846.225s2.407,2.99,3.53,4.6a8.435,8.435,0,0,0,10.285,2.656c1.449-.711,2.818-1.884,4.428-1.775s2.872,1.48,4.452,1.785c2.07.4,4.036-1.124,5.267-2.836s2.088-3.728,3.663-5.13c2.063-1.835,4.961-2.288,7.571-3.186A21.357,21.357,0,0,0,90.657,33.175" transform="translate(0.162 0)" fill="#263238"/>
        <path id="Path_22044" data-name="Path 22044" d="M51.376,51.268a5.8,5.8,0,0,0-2.3-1.515l.176-.011a3.433,3.433,0,0,0-.493-.084,2.29,2.29,0,0,0-1.8.222h.017a4.261,4.261,0,0,0-2.329,2.028,5.039,5.039,0,0,0,.594,5.194,4.242,4.242,0,0,0,4.184,1.725,4.264,4.264,0,0,0,2.885-3.048,4.782,4.782,0,0,0-.932-4.511" transform="translate(0.284 0.318)" fill="#fd812a"/>
        <path id="Path_22045" data-name="Path 22045" d="M88.727,82.563l3.012-55.341a4.7,4.7,0,0,0-4.067-4.882L62.931,15.334c-7.957-1.071-13.542,8.606-14.274,16.6-.813,8.883-1.455,19.76-.59,26.43C49.809,71.776,60.8,73.806,60.8,73.806c.005-.045.082,13.656,0,18.51l8.237,17.83Z" transform="translate(0.306 0.098)" fill="#ffc09d"/>
        <path id="Path_22046" data-name="Path 22046" d="M53.629,41.835a1.713,1.713,0,0,0,1.6,1.774,1.638,1.638,0,0,0,1.809-1.494,1.714,1.714,0,0,0-1.6-1.775,1.639,1.639,0,0,0-1.811,1.495" transform="translate(0.345 0.259)" fill="#263238"/>
        <path id="Path_22047" data-name="Path 22047" d="M50.9,36.635c.205.229,1.531-.693,3.373-.637,1.842.031,3.166,1.017,3.373.8.1-.1-.1-.506-.68-.951a4.7,4.7,0,0,0-2.692-.915,4.516,4.516,0,0,0-2.692.786c-.579.419-.782.817-.68.92" transform="translate(0.327 0.224)" fill="#263238"/>
        <path id="Path_22048" data-name="Path 22048" d="M70.11,42.267a1.713,1.713,0,0,0,1.6,1.774,1.64,1.64,0,0,0,1.809-1.494,1.714,1.714,0,0,0-1.6-1.775,1.639,1.639,0,0,0-1.81,1.495" transform="translate(0.45 0.262)" fill="#263238"/>
        <path id="Path_22049" data-name="Path 22049" d="M68.886,37.487c.206.229,1.533-.693,3.374-.636,1.841.03,3.166,1.016,3.373.8.1-.1-.1-.505-.68-.951a4.7,4.7,0,0,0-2.692-.915,4.513,4.513,0,0,0-2.692.786c-.578.419-.782.817-.681.92" transform="translate(0.442 0.23)" fill="#263238"/>
        <path id="Path_22050" data-name="Path 22050" d="M61.887,50.963a12.187,12.187,0,0,0-2.977-.625c-.469-.061-.912-.168-.982-.491a2.393,2.393,0,0,1,.353-1.386q.713-1.689,1.494-3.543c2.076-5.046,3.594-9.2,3.391-9.282s-2.053,3.941-4.13,8.987q-.75,1.867-1.435,3.566a2.723,2.723,0,0,0-.3,1.84,1.185,1.185,0,0,0,.754.711,3.167,3.167,0,0,0,.8.133,11.969,11.969,0,0,0,3.033.091" transform="translate(0.368 0.229)" fill="#263238"/>
        <path id="Path_22051" data-name="Path 22051" d="M60.776,73.416a32.064,32.064,0,0,0,17.213-4.3s-3.865,9.93-17.192,8.3Z" transform="translate(0.39 0.444)" fill="#ff9b6c"/>
        <path id="Path_22052" data-name="Path 22052" d="M62.007,55.238A4.536,4.536,0,0,1,65.8,53.364a2.95,2.95,0,0,1,2.386,1.388,2.706,2.706,0,0,1-3.149,3.967,6.722,6.722,0,0,1-2.665-1.755,2.1,2.1,0,0,1-.564-.706.939.939,0,0,1,.1-.933" transform="translate(0.397 0.343)" fill="#ff9b6c"/>
        <path id="Path_22053" data-name="Path 22053" d="M67.247,52.284c-.3-.026-.359,1.974-2.112,3.345s-3.874,1.09-3.9,1.369c-.031.126.464.4,1.363.452a4.98,4.98,0,0,0,3.252-1.03,4.333,4.333,0,0,0,1.641-2.808c.1-.834-.109-1.337-.246-1.328" transform="translate(0.393 0.336)" fill="#263238"/>
        <path id="Path_22054" data-name="Path 22054" d="M68.291,29.924c.167.506,2.014.321,4.168.643,2.162.278,3.887.96,4.186.519.135-.211-.156-.691-.847-1.2A7.327,7.327,0,0,0,69.433,29c-.8.3-1.214.68-1.142.92" transform="translate(0.439 0.184)" fill="#263238"/>
        <path id="Path_22055" data-name="Path 22055" d="M51.724,30.354c.312.428,1.594.029,3.121.052,1.527-.031,2.811.361,3.121-.068.136-.208-.055-.634-.609-1.046a4.518,4.518,0,0,0-5.029.013c-.552.415-.741.84-.6,1.049" transform="translate(0.332 0.183)" fill="#263238"/>
        <path id="Path_22056" data-name="Path 22056" d="M39.776,28.276A9.175,9.175,0,0,1,43.3,23.223a33.793,33.793,0,0,0,2.972-1.729c1.929-1.558,2.376-4.268,3.568-6.443a10.082,10.082,0,0,1,7.681-5.1c2.646-.271,5.372.522,7.951-.128,1.906-.48,3.572-1.718,5.5-2.085,3.761-.715,7.257,1.985,9.984,4.672.01,2.692-2.135,4.493-4.2,6.22a9.336,9.336,0,0,1-7.56,2c-2.054-.375-4.306-1.414-6.085-.319-1.871,1.151-1.947,3.971-3.606,5.412-2.371,2.058-6.141.127-9.15,1.02-2.325.689-3.776,2.912-5.32,4.781s-3.858,3.646-6.181,2.956a27.264,27.264,0,0,1,.922-6.2" transform="translate(0.25 0.049)" fill="#263238"/>
        <path id="Path_22057" data-name="Path 22057" d="M67.829,16.888c1.686-.482,5.136-1.574,6.041-3.036C75.833,10.676,79.3,8.507,82.834,8.7a8.5,8.5,0,0,1,7.658,6.723,12.231,12.231,0,0,1,10.513,6.766,12.836,12.836,0,0,1,.667,1.569,9.308,9.308,0,0,1,.623,7.812c-.584,1.523-1.577,3.217-.794,4.647.8,1.455,2.813,1.5,4.382,2.042a6.179,6.179,0,0,1,3.892,6.9,7.534,7.534,0,0,0-.491,3.039,6.624,6.624,0,0,0,1.818,2.627,7.69,7.69,0,0,1-4.508,12.516c-1.2.217-2.5.167-3.539.806-1.191.733-1.711,2.165-2.551,3.283a6.632,6.632,0,0,1-7.187,2.25,6,6,0,0,1-1.444-.727,4.759,4.759,0,0,1-4.22,1.869l.493-28.152a2.33,2.33,0,0,1-1.706,1.338c-4.518,1.023-5.179-8.289-4.171-10.813a26.277,26.277,0,0,1-4.535-4.766c-1.247-1.844-2.345-6.871-2.079-9.134-1.629.1-8.567-2.2-7.826-2.407" transform="translate(0.435 0.056)" fill="#263238"/>
        <path id="Path_22058" data-name="Path 22058" d="M86.78,44.749c.143-2.861,3.644-3.473,6.124-2.04,1.362.787,2.4,2.369,2.279,5.408-.333,8.1-8.4,6.095-8.4,5.862,0-.144-.168-5.88,0-9.23" transform="translate(0.557 0.27)" fill="#ffc09d"/>
        <path id="Path_22059" data-name="Path 22059" d="M89.365,50.994c.036-.024.137.1.371.223a1.407,1.407,0,0,0,1.054.065c.869-.279,1.646-1.608,1.745-3.067a4.669,4.669,0,0,0-.313-2.036,1.627,1.627,0,0,0-1.016-1.127.719.719,0,0,0-.848.352c-.118.222-.073.385-.117.4-.023.019-.168-.143-.09-.475a.9.9,0,0,1,.34-.5,1.067,1.067,0,0,1,.788-.174A1.987,1.987,0,0,1,92.7,45.975a4.8,4.8,0,0,1,.4,2.279c-.119,1.63-1.017,3.124-2.2,3.414a1.513,1.513,0,0,1-1.281-.268c-.244-.21-.278-.393-.25-.407" transform="translate(0.574 0.287)" fill="#ff9b6c"/>
        <path id="Path_22060" data-name="Path 22060" d="M78.912,14.662a4.817,4.817,0,0,1,1.616,1.354c.8,1.1,1.1,3.219.6,5.6l-.043.2.2.049a7.834,7.834,0,0,1,5.219,4.6,6.082,6.082,0,0,1,.42,1.976,11.831,11.831,0,0,1-.254,2.141,16.092,16.092,0,0,0-.308,2.306A3.808,3.808,0,0,0,87,35.282,9.822,9.822,0,0,0,91.018,38.3a13.635,13.635,0,0,1,3.762,2.464,10.121,10.121,0,0,1,3.025,6.787,10.569,10.569,0,0,1-1.067,5.007c-.538,1.106-.99,1.633-.944,1.667.015.013.134-.113.346-.364a8.542,8.542,0,0,0,.8-1.2,10.3,10.3,0,0,0,1.274-5.12,10.421,10.421,0,0,0-3.059-7.151A13.953,13.953,0,0,0,91.274,37.8a9.433,9.433,0,0,1-3.8-2.832c-.9-1.23-.5-2.836-.26-4.286a12.325,12.325,0,0,0,.25-2.248,6.58,6.58,0,0,0-.474-2.162,8.209,8.209,0,0,0-5.614-4.814l.156.254c.479-2.5.1-4.688-.818-5.837a3.4,3.4,0,0,0-1.267-1.033,1.951,1.951,0,0,0-.539-.182" transform="translate(0.507 0.094)" fill="#455a64"/>
        <path id="Path_22061" data-name="Path 22061" d="M92.418,53.977a5.791,5.791,0,0,0-2.3-1.515l.176-.011a3.434,3.434,0,0,0-.493-.084,2.29,2.29,0,0,0-1.8.222h.017a4.257,4.257,0,0,0-2.329,2.028,5.039,5.039,0,0,0,.594,5.194,3.852,3.852,0,0,0,7.069-1.323,4.781,4.781,0,0,0-.932-4.511" transform="translate(0.547 0.336)" fill="#fd812a"/>
        <path id="Path_22062" data-name="Path 22062" d="M108.014,158.514l.155-34.048,3.166,6.286,19.8-19.686s-9.58-17.428-14.016-20.8S95.358,83.381,94.24,82.722c0,0-4.492,7.566-18.483,11.759S50.041,80.626,50.041,80.626l-15.919.707s-1.35,23.887-1.591,40.245c-.071,4.811.207,9.007.326,11.707.528,11.88,12.506,32.311,12.506,32.311s17.014,6.066,35.009,3.835,27.641-10.917,27.641-10.917" transform="translate(0.209 0.518)" fill="#1477fa"/>
        <path id="Path_22063" data-name="Path 22063" d="M34.269,81.328c-8.3,1.754-15.73,12.185-24.643,32.652l24.213,18.062Z" transform="translate(0.062 0.522)" fill="#1477fa"/>
        <path id="Path_22064" data-name="Path 22064" d="M108.731,103.472a3.763,3.763,0,0,1,.152,1.071c.06.69.114,1.693.154,2.932.082,2.477.07,5.906-.156,9.683s-.632,7.185-1.01,9.634c-.188,1.225-.362,2.213-.505,2.891a3.783,3.783,0,0,1-.28,1.045,31.644,31.644,0,0,1,.363-3.991c.27-2.457.6-5.853.831-9.614s.3-7.173.331-9.644a31.7,31.7,0,0,1,.12-4.007" transform="translate(0.688 0.665)" fill="#263238"/>
        <path id="Path_22065" data-name="Path 22065" d="M34.878,98.177a5.736,5.736,0,0,1-.12,1.336c-.141.977-.315,2.182-.52,3.6-.443,3.039-1.043,7.241-1.391,11.908A108.458,108.458,0,0,0,32.63,127c.067,1.433.125,2.647.171,3.632a5.8,5.8,0,0,1,.007,1.341,5.744,5.744,0,0,1-.241-1.319c-.124-.853-.245-2.094-.362-3.631a83.617,83.617,0,0,1,.042-12.043,114.663,114.663,0,0,1,1.57-11.933c.277-1.515.522-2.735.711-3.576a5.694,5.694,0,0,1,.35-1.294" transform="translate(0.206 0.631)" fill="#263238"/>
        <path id="Path_22066" data-name="Path 22066" d="M72.656,110.58l.812,32.51a3,3,0,0,1-2.931,3.076l-13.7.316a3,3,0,0,1-3.065-2.795l-2.214-32.154a3,3,0,0,1,2.861-3.205l15.1-.67a3,3,0,0,1,3.134,2.924" transform="translate(0.331 0.692)" fill="#263238"/>
        <path id="Path_22067" data-name="Path 22067" d="M60.7,114.242a1.262,1.262,0,1,0,1.2-1.316,1.262,1.262,0,0,0-1.2,1.316" transform="translate(0.39 0.725)" fill="#fff"/>
        <path id="Path_22068" data-name="Path 22068" d="M52.31,118.894s-3.711,4.812-5.062,6.937-1.569,8.848-1.569,8.848l.056,4.683-7.422,3.284,5.732,15.975,11.25-9.729,11.365-2.132s5.238-5.4,6.061-7.809a11.1,11.1,0,0,0,.637-4.262,79.58,79.58,0,0,0,2.758-7.661,28.289,28.289,0,0,0,.273-5.486s-1.461-.348-2.593,2.077l1.78-4.107s-1.168-3.045-3.716.062S65.1,127.93,65.1,127.93l-4.871,4.243-.651-.693s8.482-11.323,8.189-13.273-2.153-1.97-4.02.178S54.3,131.2,53.277,131.347s-1.4-1.281-1.4-1.281l.547-3.948.376-.843Z" transform="translate(0.246 0.75)" fill="#ffc09d"/>
        <path id="Path_22069" data-name="Path 22069" d="M66.755,134.526a2.135,2.135,0,0,0,.344-.4c.209-.268.5-.663.854-1.155.707-.986,1.648-2.375,2.622-3.951s1.8-3.036,2.365-4.11c.284-.535.506-.973.652-1.28a2.189,2.189,0,0,0,.206-.487,2.2,2.2,0,0,0-.29.443q-.3.507-.721,1.24c-.6,1.05-1.45,2.495-2.421,4.066s-1.888,2.972-2.556,3.981l-.79,1.2a2.21,2.21,0,0,0-.266.456" transform="translate(0.429 0.791)" fill="#ff9b6c"/>
        <path id="Path_22070" data-name="Path 22070" d="M69.381,139.519a32.778,32.778,0,0,0,2.295-3.277,32.713,32.713,0,0,0,2.091-3.412,32.576,32.576,0,0,0-2.3,3.277,32.463,32.463,0,0,0-2.089,3.412" transform="translate(0.446 0.853)" fill="#ff9b6c"/>
        <path id="Path_22071" data-name="Path 22071" d="M13.163,116.348S.613,149.229.023,160.589c-.537,10.367,8.431,16.623,15.2,15.642,15.9-2.3,40.313-27.337,40.313-27.337l-9.182-9.741-21.448,9.612,6.67-18.678Z" transform="translate(0 0.747)" fill="#ffc09d"/>
        <g id="Group_20848" data-name="Group 20848" transform="translate(73.27 120.488)" opacity="0.3">
          <g id="Group_20847" data-name="Group 20847">
            <g id="Group_20846" data-name="Group 20846" clip-path="url(#clip-path-3)">
              <path id="Path_22072" data-name="Path 22072" d="M130.547,147.306c2.66-6.492.672-14.353-4.071-19.523s-11.844-7.8-18.855-8.045a33.734,33.734,0,0,0-30.865,49.753,28.478,28.478,0,0,0,9.92-2.43c4.227-2.159,43.871-19.755,43.871-19.755" transform="translate(-72.802 -119.718)"/>
            </g>
          </g>
        </g>
        <path id="Path_22073" data-name="Path 22073" d="M132.273,155.312a26.757,26.757,0,1,1-23.722-29.481,26.757,26.757,0,0,1,23.722,29.481" transform="translate(0.507 0.807)" fill="#6dfc3a"/>
        <path id="Path_22074" data-name="Path 22074" d="M103.7,164.795,89.819,153.168l4.058-4.843,9.306,7.8,14.272-15.17,4.6,4.33Z" transform="translate(0.577 0.906)" fill="#fff"/>
      </g>
    </g>
  </g>
</svg>
