<svg xmlns="http://www.w3.org/2000/svg" width="30" height="30" viewBox="0 0 30 30">
  <g id="Group_22702" data-name="Group 22702" transform="translate(0 0.304)">
    <rect id="Rectangle_8296" data-name="Rectangle 8296" width="30" height="30" rx="15" transform="translate(0 -0.304)"/>
    <path id="map-signs" d="M15.021,2.595a.275.275,0,0,1,0,.4L13.789,4.229a.809.809,0,0,1-.594.245H1.454a.537.537,0,0,1-.393-.166.537.537,0,0,1-.166-.393V1.677a.537.537,0,0,1,.166-.393.537.537,0,0,1,.393-.166H6.486V.559A.537.537,0,0,1,6.652.166.537.537,0,0,1,7.045,0H8.163a.537.537,0,0,1,.393.166.537.537,0,0,1,.166.393v.559H13.2a.808.808,0,0,1,.594.245ZM6.486,10.623H8.723V15.1a.567.567,0,0,1-.559.559H7.045a.567.567,0,0,1-.559-.559V10.623Zm7.268-3.914a.567.567,0,0,1,.559.559V9.505a.567.567,0,0,1-.559.559H2.013a.808.808,0,0,1-.594-.245L.187,8.588a.275.275,0,0,1,0-.4L1.419,6.954a.809.809,0,0,1,.594-.245H6.486V5.032H8.723V6.709h5.032Z" transform="translate(7.396 6.869)" fill="#6dfc3a"/>
  </g>
</svg>
