<svg xmlns="http://www.w3.org/2000/svg" width="30" height="30" viewBox="0 0 30 30">
  <g id="Group_22699" data-name="Group 22699" transform="translate(-40 -498)">
    <g id="Group_21644" data-name="Group 21644" transform="translate(40 497.576)">
      <rect id="Rectangle_8299" data-name="Rectangle 8299" width="30" height="30" rx="15" transform="translate(0 0.424)"/>
    </g>
    <g id="_004-bag" data-name="004-bag" transform="translate(46 503)">
      <path id="Path_53" data-name="Path 53" d="M16.207,11.638a32.758,32.758,0,0,0-.51-3.855,1.962,1.962,0,0,0-1.967-1.6H4.55a2.033,2.033,0,0,0-1.967,1.6c-.146,1.091-.437,2.618-.51,3.855C2,12.8,2,14.257,2,15.348a1.913,1.913,0,0,0,1.821,1.891c1.53.073,3.643.218,5.246.218s3.716-.145,5.246-.218a1.913,1.913,0,0,0,1.821-1.891,21.033,21.033,0,0,0,.073-3.709ZM6.954,10.329A.783.783,0,0,1,6.226,9.6a.783.783,0,0,1,.729-.727.783.783,0,0,1,.729.727A.783.783,0,0,1,6.954,10.329Zm4.371,0A.783.783,0,0,1,10.6,9.6a.729.729,0,0,1,1.457,0A.783.783,0,0,1,11.326,10.329Z" transform="translate(0 -1.202)" fill="#6dfc3a"/>
      <path id="Path_54" data-name="Path 54" d="M9.3,4.036a.885.885,0,0,1,.874-.873H11.63a.885.885,0,0,1,.874.873V4.4H13.6V4.036A2.035,2.035,0,0,0,11.558,2H10.1A2.071,2.071,0,0,0,8.133,4.036V4.4H9.226V4.036Z" transform="translate(-1.762)" fill="#6dfc3a"/>
    </g>
  </g>
</svg>
