<svg xmlns="http://www.w3.org/2000/svg" width="30" height="30" viewBox="0 0 30 30">
  <g id="Group_21644" data-name="Group 21644" transform="translate(0 -0.424)">
    <rect id="Rectangle_8299" data-name="Rectangle 8299" width="30" height="30" rx="15" transform="translate(0 0.424)"/>
    <path id="_003-bag" data-name="003-bag" d="M15.3,8.684c-.068-1.564-.341-3.626-.546-5.048A1.869,1.869,0,0,0,12.914,2H4.456A1.869,1.869,0,0,0,2.614,3.635c-.2,1.493-.409,3.484-.546,5.048C2,10.177,2,12.239,2,13.732a1.836,1.836,0,0,0,1.705,1.849c1.433.142,3.411.213,4.911.213s3.479-.142,4.911-.213a1.836,1.836,0,0,0,1.705-1.849A41.556,41.556,0,0,0,15.3,8.684Zm-6.617.071A3.346,3.346,0,0,1,5.411,5.342a.546.546,0,1,1,1.091,0A2.245,2.245,0,0,0,8.685,7.617a2.294,2.294,0,0,0,2.183-2.275.55.55,0,0,1,.546-.569.513.513,0,0,1,.546.569A3.392,3.392,0,0,1,8.685,8.755Z" transform="translate(6.327 6.562)" fill="#6dfc3a"/>
  </g>
</svg>
