<svg id="Group_22706" data-name="Group 22706" xmlns="http://www.w3.org/2000/svg" width="30" height="30" viewBox="0 0 30 30">
  <rect id="Rectangle_8300" data-name="Rectangle 8300" width="30" height="30" rx="15"/>
  <path id="_051-moon" data-name="051-moon" d="M16.673,9.877a7.017,7.017,0,0,1-7.046,6.956,6.956,6.956,0,0,1-6.576-4.189.568.568,0,0,1,.7-.79,6.083,6.083,0,0,0,1.1.158,5.557,5.557,0,0,0,5.637-5.533A5.629,5.629,0,0,0,9.862,3.79a.491.491,0,0,1,.078-.553A.708.708,0,0,1,10.489,3a6.969,6.969,0,0,1,6.185,6.877Z" transform="translate(5.163 5)" fill="#6dfc3a"/>
</svg>
