<svg xmlns="http://www.w3.org/2000/svg" width="30" height="30" viewBox="0 0 30 30">
  <g id="Group_22703" data-name="Group 22703" transform="translate(0 -0.272)">
    <rect id="Rectangle_8297" data-name="Rectangle 8297" width="30" height="30" rx="15" transform="translate(0 0.272)"/>
    <path id="_034-flash" data-name="034-flash" d="M17.55,8.517,14.309,12.17,10.7,15.975a1.432,1.432,0,0,1-1.111.457.991.991,0,0,1-.463-.076A1.185,1.185,0,0,1,8.2,15.29V11.713H5.326a1.209,1.209,0,0,1-1.2-.685A1.022,1.022,0,0,1,4.307,9.81L7.826,6.157,10.975,2.5a1.627,1.627,0,0,1,1.574-.457,1.185,1.185,0,0,1,.926,1.065V6.69h2.963a1.284,1.284,0,0,1,1.2.609A.993.993,0,0,1,17.55,8.517Z" transform="translate(4.095 6.074)" fill="#6dfc3a"/>
  </g>
</svg>
