<svg id="Group_22701" data-name="Group 22701" xmlns="http://www.w3.org/2000/svg" width="30" height="30" viewBox="0 0 30 30">
  <g id="Group_22740" data-name="Group 22740">
    <rect id="Rectangle_8295" data-name="Rectangle 8295" width="30" height="30" rx="15"/>
    <g id="Group_21632" data-name="Group 21632" transform="translate(10.095 8.561)">
      <path id="Path_86" data-name="Path 86" d="M9.183,9.2a2.751,2.751,0,0,0,3.5,0,2.834,2.834,0,0,0,1.066-2.283,2.734,2.734,0,0,0-.685-1.889A2.8,2.8,0,0,0,10.934,4,2.682,2.682,0,0,0,8.8,5.023,2.8,2.8,0,0,0,8.04,6.913,2.9,2.9,0,0,0,9.183,9.2Z" transform="translate(-5.992 -4)" fill="#6dfc3a"/>
      <path id="Path_87" data-name="Path 87" d="M12.63,13.351h-3.6a4.263,4.263,0,0,0-3.174,4.364,1.58,1.58,0,0,0,.6,1.351c.6.416,1.8.935,4.289.935s3.689-.52,4.289-.935a1.618,1.618,0,0,0,.6-1.351,3.9,3.9,0,0,0-3-4.364Z" transform="translate(-5.853 -7.121)" fill="#6dfc3a"/>
    </g>
  </g>
</svg>
