<svg xmlns="http://www.w3.org/2000/svg" width="30" height="30" viewBox="0 0 30 30">
  <g id="Group_22704" data-name="Group 22704" transform="translate(0 0.152)">
    <rect id="Rectangle_8298" data-name="Rectangle 8298" width="30" height="30" rx="15" transform="translate(0 -0.152)"/>
    <g id="Group_21642" data-name="Group 21642" transform="translate(8.658 8.219)">
      <path id="_072-setting" data-name="072-setting" d="M13.821,8.725l-.139-.07.139-.07A1.738,1.738,0,0,0,14.445,6.2l-.971-1.681a1.775,1.775,0,0,0-1.04-.841,1.745,1.745,0,0,0-1.318.14l-.139.07v-.14A1.726,1.726,0,0,0,9.244,2H7.371A1.726,1.726,0,0,0,5.637,3.751v.14H5.568a1.473,1.473,0,0,0-1.318-.21,1.593,1.593,0,0,0-1.04.841L2.239,6.2a1.738,1.738,0,0,0,.624,2.382L3,8.655l-.139.07a1.738,1.738,0,0,0-.624,2.382l.971,1.681a1.775,1.775,0,0,0,1.04.841,1.473,1.473,0,0,0,1.318-.21h.069v.14A1.726,1.726,0,0,0,7.371,15.31H9.244a1.726,1.726,0,0,0,1.734-1.751v-.14l.139.07a1.746,1.746,0,0,0,1.318.14,1.593,1.593,0,0,0,1.04-.841l.971-1.681a1.738,1.738,0,0,0-.624-2.382ZM8.342,11.317a2.662,2.662,0,1,1,2.635-2.662,2.648,2.648,0,0,1-2.635,2.662Z" transform="translate(-2 -2)" fill="#6dfc3a"/>
      <circle id="Ellipse_779" data-name="Ellipse 779" cx="1.75" cy="1.75" r="1.75" transform="translate(4.592 4.905)" fill="#6dfc3a"/>
    </g>
  </g>
</svg>
