<svg xmlns="http://www.w3.org/2000/svg" width="30" height="30" viewBox="0 0 30 30">
  <g id="Group_22708" data-name="Group 22708" transform="translate(-1047 -6335)">
    <g id="Group_22707" data-name="Group 22707" transform="translate(1047 6335.304)">
      <rect id="Rectangle_8296" data-name="Rectangle 8296" width="30" height="30" rx="15" transform="translate(0 -0.304)"/>
    </g>
    <path id="_061-note" data-name="061-note" d="M16.763,7.5V6.923A5.243,5.243,0,0,0,11.873,2H10.464c-1.243,0-2.984.164-4.144.246A2.143,2.143,0,0,0,4.249,4.215C4.166,5.528,4,8.072,4,9.959c0,1.805.166,4.349.249,5.744a2.207,2.207,0,0,0,1.989,2.051c1.16.082,2.9.246,4.144.246s2.984-.164,4.144-.246A2.207,2.207,0,0,0,16.515,15.7c.083-1.313.249-3.856.249-5.744a24.142,24.142,0,0,0,0-2.462ZM7.9,10.943H9.553a.651.651,0,0,1,.663.656.607.607,0,0,1-.663.656H7.9a.656.656,0,1,1,0-1.313Zm3.315,3.774H7.9a.651.651,0,0,1-.663-.656.607.607,0,0,1,.663-.656H11.21a.656.656,0,1,1,0,1.313Zm1.658-7.877a1,1,0,0,1-.995-.985V3.231a3.971,3.971,0,0,1,3.647,3.61Z" transform="translate(1051.6 6340)" fill="#6dfc3a"/>
  </g>
</svg>
