<svg xmlns="http://www.w3.org/2000/svg" width="256" height="71.68" viewBox="0 0 256 71.68">
  <g id="surface1" transform="translate(0 0.027)">
    <path id="Path_22262" data-name="Path 22262" d="M90.916,56.96A6.379,6.379,0,0,0,94.592,54.6a5.533,5.533,0,0,0,1.072-3.571A5.646,5.646,0,0,0,93.9,46.867c-1.336-1.276-3.306-1.872-5.9-1.872H75.66V62.153h3.02V47.946h9.813q3.925,0,4.091,3.072a2.838,2.838,0,0,1-.883,2.265,4.529,4.529,0,0,1-3.208,1.027H80.446V57.33h6.447l4.8,4.824h4.424L90.931,56.96m21.031-9.013a5.4,5.4,0,0,1,4.159,1.7,5.971,5.971,0,0,1,.189,7.707,5.458,5.458,0,0,1-4.348,1.812h-4.8a5.48,5.48,0,0,1-4.356-1.812,5.934,5.934,0,0,1,.181-7.707,5.5,5.5,0,0,1,4.19-1.7h4.8m0,14.207a8.19,8.19,0,0,0,6.447-2.748,8.824,8.824,0,0,0,2.2-6.039,8.221,8.221,0,0,0-2.129-5.775,8.3,8.3,0,0,0-6.552-2.6h-4.8A8.113,8.113,0,0,0,98.487,53.4a8.824,8.824,0,0,0,2.2,6.039,8.228,8.228,0,0,0,6.454,2.748h4.8m21.416,0c2.891,0,5.073-.566,6.522-1.7q2.461-1.91,2.461-6.077V44.995h-3.02v9.421a4.284,4.284,0,0,1-1.676,3.842,8.044,8.044,0,0,1-4.318.906h-1.027a8.062,8.062,0,0,1-4.325-.906,4.284,4.284,0,0,1-1.676-3.842V44.995h-2.982v9.421q0,4.144,2.423,6.039,2.2,1.7,6.56,1.7h1.027m15.286-14.207h9.813a3.457,3.457,0,0,1,2.627,1,3.163,3.163,0,0,1,0,4.386,3.5,3.5,0,0,1-2.627,1h-8.017v3.019h7.549a6.975,6.975,0,0,0,5.156-1.917,6.13,6.13,0,0,0,0-8.515,6.907,6.907,0,0,0-5.133-1.932h-12.32V62.153h2.982V47.946m22.586,4v2.982h9.813V51.947h-9.813m-1.261-4h11.852V44.995H166.977V62.153h14.848V59.134H169.974V47.946" transform="translate(-22.653 -12.557)"/>
    <path id="Path_22263" data-name="Path 22263" d="M35.009,3.667A7.549,7.549,0,0,0,29.989,2a6.145,6.145,0,0,0-4.076,1.4L14.068,13.14A7.149,7.149,0,0,0,11.2,18.862a5.729,5.729,0,0,0,3.118,5.148L22.772,29.1l14.788-12A14.848,14.848,0,0,1,42.9,14.484a15.792,15.792,0,0,1,4.265-.823Z" transform="translate(-6.852 -2.02)" fill="#fffb34"/>
    <path id="Path_22264" data-name="Path 22264" d="M65.362,38.376a1.412,1.412,0,0,0-.445-1.027L51.593,26.6,38.473,37.349a1.472,1.472,0,0,0,.445,2.416,12.259,12.259,0,0,1,3.246,1.782,4.212,4.212,0,0,1,1.072,3.3v7.82a7.549,7.549,0,0,1-1.336,4.65,3.971,3.971,0,0,1-2.6,1.653h16.97a3.774,3.774,0,0,0,2.551-1.653,7.549,7.549,0,0,0,1.336-4.65v-7.82a4.531,4.531,0,0,1,1.012-3.3,13.656,13.656,0,0,1,3.314-1.812,1.381,1.381,0,0,0,.883-1.389Z" transform="translate(-13.427 -8.052)" fill="#0077fa"/>
    <path id="Path_22265" data-name="Path 22265" d="M34.426,45.747,11.41,32.34V43.588a9.813,9.813,0,0,0,1.91,5.473,11.935,11.935,0,0,0,3.623,3.774L27.949,59.38a1.94,1.94,0,0,0,1.072.249,5.563,5.563,0,0,0,3.435-1.2,5.141,5.141,0,0,0,1.97-4.227Z" transform="translate(-6.903 -9.459)" fill="#ff812a"/>
    <path id="Path_22266" data-name="Path 22266" d="M48.377,75.667a24.835,24.835,0,0,0,3.435-.755,10.568,10.568,0,0,0,2.65-1.079c.664-.423.959-.876.883-1.374S54.59,71.447,53.4,70.9a25.74,25.74,0,0,1-5.631,1.51,49.716,49.716,0,0,1-6.228.566q-3.17.075-6.484-.159c-2.212-.151-4.341-.34-6.409-.574-1.457-.159-2.944-.385-4.446-.672s-3.019-.559-4.469-.755-2.9-.408-4.3-.521a19.136,19.136,0,0,0-4.016.1,8.47,8.47,0,0,0-2.076.551,11.128,11.128,0,0,0-1.615.853,12.077,12.077,0,0,0-1.268.883c-.362.317-.7.6-1.027.845a20.963,20.963,0,0,1,5.926-1.344,37.313,37.313,0,0,1,6.039,0c1.993.159,3.963.415,5.911.755s3.82.619,5.579.861c1.51.189,3.065.362,4.7.544s3.291.279,4.967.317A51.387,51.387,0,0,0,43.78,74.5a42.372,42.372,0,0,0,5.677-.845,21.566,21.566,0,0,1-6.243,1.215,63.345,63.345,0,0,1-7.277,0q-3.774-.226-7.549-.755l-7.02-.966c-2.121-.294-4.008-.513-5.654-.672a10.047,10.047,0,0,0-3.555.121q2.219.159,4.748.589t5.118.883L27.037,75c1.615.31,3.095.528,4.439.672,1.17.151,2.506.272,4,.355s3.019.128,4.476.128,3.019,0,4.446-.091a37.541,37.541,0,0,0,3.978-.393" transform="translate(-5.44 -18.749)" fill="#6dfc3a"/>
    <path id="Path_22267" data-name="Path 22267" d="M52.928,78.68c-.2.34-.279.5-.242.491a2.411,2.411,0,0,0,.483-.483c-.325-.264-.513-.4-.551-.385a5.5,5.5,0,0,0-.528.257,4.091,4.091,0,0,1,.113,1.427.982.982,0,0,1,0,.189h0c-.121.174-.287.393-.5.649l-.6.755c-.189.257-.423.611-.7,1.072s-.551,1-.823,1.434L48.829,85.3l-.544.944c-.151.272-.31.581-.476.936a1.774,1.774,0,0,0,.664,1.434,3.873,3.873,0,0,0,1.887.981l5.428-8.3L64,79.933a3.518,3.518,0,0,0-.37-1.51,5.193,5.193,0,0,0,0-.581,1.276,1.276,0,0,0-.46-.8l-5.36.755a26.68,26.68,0,0,0,1.948-2.083c.793-.913,1.4-1.593,1.827-2.031a5.578,5.578,0,0,1,.9-.234c.581-.128,1.51-.264,2.869-.415s3.02-.317,5.02-.521a8.176,8.176,0,0,0,.053-.944,1.509,1.509,0,0,0-.06-.347,4.162,4.162,0,0,0-.189-.6,4.615,4.615,0,0,1-.317-.581,3.834,3.834,0,0,0-.2-.445,8.659,8.659,0,0,0-2.031-.272,14.705,14.705,0,0,0-2.121.189c-.755.121-1.51.264-2.333.438s-1.8.377-3.019.627-2.5.506-3.835.755a9.329,9.329,0,0,0-.174,1.547,1.17,1.17,0,0,0,.408.755,1.125,1.125,0,0,0,.521.151q.287,0,.091-.226a4.167,4.167,0,0,0-1.034,1.163q-.687.981-1.4,1.97c-.46.657-.793,1.132-.981,1.427l-.808.566m22.193-2.695a3.02,3.02,0,0,0-.8-.091,9.957,9.957,0,0,0-5.118,1.676,20.978,20.978,0,0,0-4.7,3.971,17.264,17.264,0,0,0-2.151,2.808,6.914,6.914,0,0,0-.823,2.159,4.227,4.227,0,0,0,0,1.064A1.578,1.578,0,0,0,62,88.607a2.755,2.755,0,0,0,1.072.755,3.827,3.827,0,0,0,1.23.242,2.574,2.574,0,0,0,.544-.083,7.791,7.791,0,0,0,1.978-.838c.815-.438,1.193-.815,1.132-1.147-.755.476-1.117.891-1.178,1.261a.8.8,0,0,0,.634.755,3.1,3.1,0,0,0,.664-.166,1.766,1.766,0,0,0,.423-.159l.151.1a1.8,1.8,0,0,0,.377.128A1.087,1.087,0,0,0,70,89.324l8.3-13.248a1.283,1.283,0,0,0-.415-.528,1.366,1.366,0,0,0-.71-.181,10.662,10.662,0,0,0-1.457,0,4.847,4.847,0,0,1-.46.423c-.166.136-.234.2-.2.211M73.4,78.6a33.433,33.433,0,0,0-3.163,3.518c-.6.717-1.1,1.291-1.51,1.706a11.716,11.716,0,0,1-1.276,1.238,6.228,6.228,0,0,1-1.344.913l-1.057.506a10.8,10.8,0,0,1,1.774-2.718,18.872,18.872,0,0,1,3.5-3.329,13.588,13.588,0,0,1,3.118-1.849m1.366,8.53a4.28,4.28,0,0,0,3.963,2.265,6.794,6.794,0,0,0,2.468-.544,7.209,7.209,0,0,0,2.265-1.449,6.734,6.734,0,0,0,1.51-2.136,2.152,2.152,0,0,0,0-.8q-.068-.34-.068-.249h0a.529.529,0,0,1,.06-.151s.053-.121.106-.249a1.449,1.449,0,0,0-.476-.928,13.286,13.286,0,0,1-2.77,2.619,4.861,4.861,0,0,1-2.7,1.034,1.283,1.283,0,0,1-.838-.2c-.075-.053-.083-.219,0-.513a7.624,7.624,0,0,1,1.555-3.019,18.872,18.872,0,0,1,3.246-3.382A17.679,17.679,0,0,1,85.9,77.45a.853.853,0,0,0-.793.294,8.964,8.964,0,0,0-.611.7c-.159.219-.34.476-.544.755a.921.921,0,0,0,.332.861c.234.174.37.249.4.219l.279.7c.189.053.3,0,.332-.083s.038-.143,0-.1a2.114,2.114,0,0,0,1.993-.438A17.868,17.868,0,0,0,89.366,78.7a3.14,3.14,0,0,0,1.072-1.427,2.6,2.6,0,0,0-.755-1.064,1.721,1.721,0,0,0-1.095-.445c-.226,0-.317.075-.257.174.083-.121-.091-.317-.521-.574a2.793,2.793,0,0,0-1.442-.377,4.235,4.235,0,0,0-.823.121,15.135,15.135,0,0,0-4.529,1.774,15.377,15.377,0,0,0-3.352,2.695,13.5,13.5,0,0,0-2.121,2.967A8.885,8.885,0,0,0,74.6,85.24a3.02,3.02,0,0,0,.174,1.8M95.714,75.4a1.962,1.962,0,0,0,.755.234,2.6,2.6,0,0,0,1.3-.483,4.31,4.31,0,0,0,1.14-1.11,3.321,3.321,0,0,0,.6-1.283,1.51,1.51,0,0,0-1.374-1.653l-.544.06a3.54,3.54,0,0,0-1.51,1.072,3.654,3.654,0,0,0-.755,1.631,2.431,2.431,0,0,0,.317,1.51m-2.567,7.745c.272-.46.694-1.155,1.268-2.076l1.57-2.461c.476-.755.815-1.313,1.042-1.736a1.064,1.064,0,0,0-.755-.627,2.469,2.469,0,0,0-.544.121,1.306,1.306,0,0,1-.393.1,1.954,1.954,0,0,1-.294-.1,1.834,1.834,0,0,0-.46-.091,1.185,1.185,0,0,0-.491.136,3.888,3.888,0,0,0-.77.868c-.377.46-.876,1.11-1.51,1.948s-1.178,1.615-1.668,2.333c-1.449,2.038-2.665,3.812-3.646,5.337a1.578,1.578,0,0,0,.974,1.555,2.68,2.68,0,0,0,.664.6,1.782,1.782,0,0,0,.966.37,2.491,2.491,0,0,0,.521-.128c.332-.506.664-1.042,1-1.608s.657-1.11.966-1.661.559-1,.755-1.359l.838-1.464m11.323-11.753q-2.129,2.551-6.3,8.734-1,1.51-1.842,2.7c-.551.815-.944,1.4-1.17,1.759s-.438.755-.649,1.11-.468.861-.755,1.464a1.419,1.419,0,0,0-.121.34.642.642,0,0,0,.257.528,1.3,1.3,0,0,0,.476.2.491.491,0,0,1,.279.128,4.688,4.688,0,0,0,1.11.559,4.182,4.182,0,0,0,1.608.257c.272-.46.589-1.072.951-1.819s.845-1.661,1.419-2.77,1.095-2.076,1.555-2.891q.989-1.736,2.416-3.9t2.491-3.714c.71-1.027,1.246-1.865,1.615-2.5a1.3,1.3,0,0,0-.755-.513,2.265,2.265,0,0,0-.694.189,1.607,1.607,0,0,1-.491.189c.121,0,.075,0-.143-.106a1.955,1.955,0,0,0-.6-.136,1.125,1.125,0,0,0-.521.189m5.284,3.94a2.023,2.023,0,0,0,.755.234,2.491,2.491,0,0,0,1.3-.483,4.454,4.454,0,0,0,1.147-1.11,3.186,3.186,0,0,0,.589-1.283,1.51,1.51,0,0,0-1.381-1.646l-.528.06a3.4,3.4,0,0,0-1.51,1.064,3.473,3.473,0,0,0-.755,1.623,2.363,2.363,0,0,0,.317,1.51m-2.574,7.76c.279-.468.7-1.155,1.276-2.076s1.095-1.751,1.57-2.476a19.185,19.185,0,0,0,1.034-1.729,1.08,1.08,0,0,0-.755-.634,1.865,1.865,0,0,0-.559.121.755.755,0,0,1-.694,0,1.668,1.668,0,0,0-.445-.091,1.351,1.351,0,0,0-.5.136,3.774,3.774,0,0,0-.815.808q-.566.679-1.51,1.948t-1.653,2.34q-2.174,3.065-3.646,5.329a1.608,1.608,0,0,0,.981,1.57,2.929,2.929,0,0,0,.657.6,1.9,1.9,0,0,0,.974.355,2.2,2.2,0,0,0,.513-.136c.325-.491.657-1.027,1-1.593s.672-1.117.974-1.668l.755-1.359q.294-.521.838-1.449m14.728-7.843c.453-.589.891-1.2,1.321-1.834s.868-1.238,1.276-1.827.755-1.132,1.049-1.623a1.344,1.344,0,0,0-.755-.755,2.884,2.884,0,0,0-.981-.166c-.083,0-.287.06-.589.106a2.966,2.966,0,0,0-.944.317c-.242.294-.544.687-.913,1.193s-.694.966-.974,1.329l-.755,1.034-.793,1.049a1.51,1.51,0,0,0-.219.377c-.6.06-1.306.113-2.129.159a19.353,19.353,0,0,0-2.687.362,1.464,1.464,0,0,0-.506.755.981.981,0,0,0,.083.521c.083.2.128.294.128.272a1.947,1.947,0,0,1-.257.377A1.321,1.321,0,0,0,113,77.4c.06.294.317.5.793.6,2.129-.219,3.11-.4,2.936-.559a29.919,29.919,0,0,0-2.265,2.74c-.6.845-1.253,1.661-1.849,2.476s-1.132,1.578-1.615,2.265-1.012,1.578-1.593,2.582a1.027,1.027,0,0,0,.989.793q.317-.083.272,0a1.607,1.607,0,0,1,.166.377,2.265,2.265,0,0,0,.377.649,1.057,1.057,0,0,0,.755.377,1.744,1.744,0,0,0,.483-.143l3.095-4.6c.853-1.268,1.653-2.453,2.393-3.533l1.789-2.612a14.411,14.411,0,0,0,.83-1.238c.2,0,.679-.06,1.464-.151s1.683-.174,2.71-.234a1.578,1.578,0,0,0,.46-.694v-.408h0a1.684,1.684,0,0,0,.468-.483,1.985,1.985,0,0,0,.272-.506,1.812,1.812,0,0,0,0-.717,10.463,10.463,0,0,0-2.876.189q-1.7.31-1.042.679m10.463.46a2.71,2.71,0,0,0-.8-.083,10.025,10.025,0,0,0-5.216,1.676,21.031,21.031,0,0,0-4.68,3.963,16.434,16.434,0,0,0-2.114,2.808,6.87,6.87,0,0,0-.823,2.159,4.174,4.174,0,0,0,0,1.064,1.51,1.51,0,0,0,.445,1.034,2.929,2.929,0,0,0,1.087.755,3.774,3.774,0,0,0,1.215.242,2.785,2.785,0,0,0,.551-.068,8.493,8.493,0,0,0,2.016-.823c.815-.438,1.193-.815,1.147-1.147-.755.483-1.117.906-1.178,1.276a.8.8,0,0,0,.649.717,3.246,3.246,0,0,0,.649-.174,2.568,2.568,0,0,0,.423-.159.839.839,0,0,0,.151.1,2.182,2.182,0,0,0,.377.128,1.51,1.51,0,0,0,.393.068,1.283,1.283,0,0,0,.566-.189l8.3-13.24a1.11,1.11,0,0,0-.393-.536,1.389,1.389,0,0,0-.717-.189,13.373,13.373,0,0,0-1.51,0,3.368,3.368,0,0,1-.445.408c-.174.136-.242.2-.2.211m-1.653,2.612a32.657,32.657,0,0,0-3.17,3.51q-.9,1.072-1.51,1.7a11.718,11.718,0,0,1-1.276,1.238,6.1,6.1,0,0,1-1.321.936l-1.049.521a10.674,10.674,0,0,1,1.766-2.725,18.367,18.367,0,0,1,3.488-3.344,13.165,13.165,0,0,1,3.125-1.834M145.4,75.14c.445-.581.891-1.193,1.321-1.827L148,71.471c.415-.589.755-1.125,1.049-1.593a1.336,1.336,0,0,0-.755-.755,2.868,2.868,0,0,0-.974-.166l-.6.106a3.638,3.638,0,0,0-.944.294q-.355.438-.906,1.2c-.37.513-.7.951-1,1.313-.136.189-.4.528-.755,1.027l-.755,1.049a1.51,1.51,0,0,0-.226.377c-.6.068-1.306.121-2.121.159a21.832,21.832,0,0,0-2.687.355,1.449,1.449,0,0,0-.506.755.966.966,0,0,0,.075.521q.136.31.136.272a2.264,2.264,0,0,1-.264.377,1.321,1.321,0,0,0-.279.506c.053.3.317.5.755.6q3.208-.31,2.944-.544c-.9.974-1.668,1.887-2.3,2.725s-1.253,1.676-1.849,2.491-1.132,1.578-1.623,2.265-1,1.57-1.585,2.567a1.034,1.034,0,0,0,.921.861q.317-.083.272,0a1.608,1.608,0,0,1,.166.377,2.265,2.265,0,0,0,.385.642,1,1,0,0,0,.755.37,1.555,1.555,0,0,0,.483-.143c1.2-1.782,2.265-3.314,3.087-4.59s1.661-2.453,2.4-3.533l1.774-2.657a14.841,14.841,0,0,0,.83-1.23c.2,0,.679-.06,1.457-.151s1.683-.174,2.718-.234a1.623,1.623,0,0,0,.46-.7c0-.1,0-.174,0-.234v-.166h0a1.811,1.811,0,0,0,.476-.483A2.627,2.627,0,0,0,149.28,75a1.82,1.82,0,0,0,0-.717,10.727,10.727,0,0,0-2.884.174c-1.132.2-1.472.423-1.034.687m-2.574,12.342q.71,1.766,3.472,1.834a9.942,9.942,0,0,0,3.019-.566,10.44,10.44,0,0,0,2.846-1.51,5.669,5.669,0,0,0,1.827-2.144.853.853,0,0,0-.272-.627c-.181-.181-.257-.226-.234-.143a1.2,1.2,0,0,0-.483-1.238,7.9,7.9,0,0,1-2.808,2.182,6.794,6.794,0,0,1-2.846.755,1.57,1.57,0,0,1-.717-.091c-.309-.083-.415-.242-.317-.483a6.608,6.608,0,0,1,.2-.755,14.009,14.009,0,0,0,3.5-.611,19.755,19.755,0,0,0,3.367-1.253,8.568,8.568,0,0,0,3.087-2.2,4.59,4.59,0,0,0,.838-1.88,2.876,2.876,0,0,0-.589-2.227,2.974,2.974,0,0,0-2.151-1.117,10.568,10.568,0,0,0-4.408,1.012,14.033,14.033,0,0,0-3.7,2.514,15.1,15.1,0,0,0-2.6,3.269,9.346,9.346,0,0,0-1.246,3.231,3.653,3.653,0,0,0,.219,2.023m11.051-8.545h0c0,.159-.242.385-.755.672a10.471,10.471,0,0,1-2.023.876q-.611.181-1.97.5c-.9.219-1.351.423-1.344.611.627-.476,1.283-.944,1.985-1.427a9.851,9.851,0,0,1,2.431-1.193,3.721,3.721,0,0,1,1.034-.174c.362,0,.559,0,.589.113m1.691,8.341a2.627,2.627,0,0,0,2.355,1.8,4.484,4.484,0,0,0,1.819-.468,10.327,10.327,0,0,0,1.683-1c.491-.355.981-.755,1.51-1.132s.627-.634.377-.7c-.136-.166-.332,0-.581.506a5.518,5.518,0,0,0-.5,1.449.7.7,0,0,0,.543.627,2.867,2.867,0,0,1,.476.151.8.8,0,0,1,.128.189.974.974,0,0,0,.294.317,1.51,1.51,0,0,0,.861.106l8.138-13.1a1.246,1.246,0,0,0-.755-.589,1.661,1.661,0,0,0-.627.189,1.17,1.17,0,0,1-.438.166,1.313,1.313,0,0,1-.468-.121,2.106,2.106,0,0,0-.6-.136,1.389,1.389,0,0,0-.83.4q-3.155,3.631-5.05,5.563a23.249,23.249,0,0,1-2.974,2.733,5.322,5.322,0,0,1-1.615.921c.091.091.143.091.166,0a2.944,2.944,0,0,1,.423-.951c.257-.415.627-.944,1.11-1.593s1.125-1.434,1.88-2.37,1.865-2.317,3.321-4.152a1,1,0,0,0-.755-.755,2.6,2.6,0,0,0-.544.075l-.4.091a.671.671,0,0,1-.257-.121,1.879,1.879,0,0,0-.6-.128,1.82,1.82,0,0,0-.574.143c-1.019.989-2.046,2.076-3.095,3.246a33.967,33.967,0,0,0-2.9,3.774,9.391,9.391,0,0,0-1.57,3.472,2.967,2.967,0,0,0,.121,1.419M178.2,77.623a10.2,10.2,0,0,0,1.676-2.265,1.547,1.547,0,0,0-.845-.445,1.9,1.9,0,0,0-.861.272l-.483.257h-.936a1.14,1.14,0,0,0-.566.166,18.118,18.118,0,0,0-1.51,2.159q-1.412,2.166-2.317,3.676-1.147,1.963-1.857,3.435c-.483.981-.823,1.7-1.027,2.159a.755.755,0,0,0,.159.634,1.1,1.1,0,0,0,.5.234c.2.06.294.076.257.06a2.665,2.665,0,0,0,.453.566,1.8,1.8,0,0,0,1.246.415q3.276-5.5,4.371-6.9a8.652,8.652,0,0,1,1.7-1.4,19.245,19.245,0,0,1,2.265-1.223c.838-.37,2.1-.921,3.774-1.638a1.261,1.261,0,0,0,.226-.483.853.853,0,0,0-.068-.476,2.741,2.741,0,0,0-.264-.415,1.306,1.306,0,0,1-.151-.211,4.012,4.012,0,0,0-.06-.506,1.117,1.117,0,0,0-.8-1,16.184,16.184,0,0,0-2.77,1.261,5.1,5.1,0,0,0-2.091,1.653M203,73.894a11.814,11.814,0,0,0-5.284,1.2,17.362,17.362,0,0,0-4.529,3.186,19.234,19.234,0,0,0-3.178,3.978,10.757,10.757,0,0,0-1.427,3.586,3.5,3.5,0,0,0,0,1.2,2.47,2.47,0,0,0,2.265,2.076q2.038,0,5.073-3.02c-.181-.136-.31-.143-.393,0s-.151.294-.249.46l-.249.491c-.06.166-.128.385-.211.649a1.246,1.246,0,0,0,1.087.536,1.176,1.176,0,0,0,.174.211,2.574,2.574,0,0,0,.476.347,1.51,1.51,0,0,0,.815.106l12.833-20.676a1,1,0,0,0-.566-.664,2.574,2.574,0,0,0-.823-.151,1.51,1.51,0,0,0-.483.083l-.521.091-.362.083a5.626,5.626,0,0,0-.611.287L203,73.894m-1.721,2.785c-.2.045-.672.574-1.4,1.578l-1.706,2.34c-.219.189-.687.649-1.4,1.374s-1.291,1.306-1.766,1.751a11.634,11.634,0,0,1-1.555,1.253,3.14,3.14,0,0,1-1.178.611q.083.091.159-.249A7.752,7.752,0,0,1,194,82.319a17.2,17.2,0,0,1,3.48-3.51,12.274,12.274,0,0,1,3.774-2.1m1.11,10.485q.7,1.751,3.465,1.827a9.693,9.693,0,0,0,3.02-.559,10.334,10.334,0,0,0,2.876-1.51,5.609,5.609,0,0,0,1.827-2.144.906.906,0,0,0-.279-.649c-.189-.2-.272-.249-.234-.159a1.208,1.208,0,0,0-.46-1.215,8.153,8.153,0,0,1-2.823,2.2,6.65,6.65,0,0,1-2.838.71,1.57,1.57,0,0,1-.755-.1c-.309-.068-.415-.226-.317-.468a5.707,5.707,0,0,1,.2-.755,14.177,14.177,0,0,0,3.5-.627,19.264,19.264,0,0,0,3.359-1.253,8.417,8.417,0,0,0,3.087-2.2,4.273,4.273,0,0,0,.9-1.865,2.838,2.838,0,0,0-2.778-3.3,10.568,10.568,0,0,0-4.4,1.034,13.671,13.671,0,0,0-3.691,2.506,15.158,15.158,0,0,0-2.612,3.261,9.6,9.6,0,0,0-1.246,3.238,3.578,3.578,0,0,0,.226,2.023m11.051-8.553h0c0,.159-.249.377-.755.664a10.569,10.569,0,0,1-2.016.883c-.415.113-1.064.272-1.97.483s-1.359.423-1.344.611c.619-.468,1.283-.944,1.978-1.427a9.964,9.964,0,0,1,2.431-1.178,3.547,3.547,0,0,1,1.034-.189c.37,0,.559,0,.6.121m10.568,9.187a1.314,1.314,0,0,0,.611.506,4.529,4.529,0,0,0,.83.1,2.487,2.487,0,0,1,.279.151,1.2,1.2,0,0,0,.5.189,1.51,1.51,0,0,0,.415-.121L240.733,75.4c-.113-.544-.377-.845-.755-.906a2.363,2.363,0,0,0-.627.143,1.509,1.509,0,0,1-.513.113h-.853a1.985,1.985,0,0,0-.649.136,9.889,9.889,0,0,0-1.97,1.389q-1.4,1.155-3.02,2.6c-1.087.966-2.046,1.842-2.891,2.619s-1.132,1.208-.906,1.276c.242-.106.46-.438.649-1.012s.4-1.246.634-2A15.093,15.093,0,0,0,230.27,78c.136-.657.226-1.178.287-1.555a1.246,1.246,0,0,0-.393-.861,1.276,1.276,0,0,0-.695-.249,1.087,1.087,0,0,1-.453-.068l-.423-.242a1.261,1.261,0,0,0-.551-.136,2.265,2.265,0,0,0-.883.279c-.279.9-.6,2.038-.959,3.42s-.755,3.11-1.283,5.178a39.028,39.028,0,0,0-.853,4.023m20.08-13.059a2.069,2.069,0,0,0,.755.226,2.657,2.657,0,0,0,1.291-.483,4.484,4.484,0,0,0,1.155-1.11,3.4,3.4,0,0,0,.589-1.283,1.51,1.51,0,0,0-1.366-1.653l-.544.06a3.616,3.616,0,0,0-2.265,2.7,2.386,2.386,0,0,0,.332,1.51m-2.567,7.8c.272-.46.694-1.155,1.261-2.076s1.095-1.744,1.57-2.476.823-1.3,1.049-1.714a1.087,1.087,0,0,0-.755-.649,1.865,1.865,0,0,0-.566.121,1.049,1.049,0,0,1-.393.091,1.555,1.555,0,0,1-.294-.091,1.766,1.766,0,0,0-.445-.1,1.238,1.238,0,0,0-.521.159,4.265,4.265,0,0,0-.8.808c-.37.453-.868,1.095-1.51,1.94s-1.185,1.615-1.691,2.333c-1.449,2.038-2.657,3.812-3.646,5.329a1.608,1.608,0,0,0,.981,1.57,3.457,3.457,0,0,0,.672.6,1.857,1.857,0,0,0,.966.355,2.612,2.612,0,0,0,.521-.128c.325-.5.649-1.027.989-1.593s.664-1.125.966-1.676l.755-1.359c.2-.347.483-.83.853-1.449m1.449,4.484c.476,1.17,1.623,1.782,3.457,1.827a9.738,9.738,0,0,0,3.02-.559,10.486,10.486,0,0,0,2.884-1.51,5.669,5.669,0,0,0,1.827-2.144.883.883,0,0,0-.287-.642c-.174-.181-.257-.226-.234-.136a1.246,1.246,0,0,0-.46-1.246,8.017,8.017,0,0,1-2.816,2.189,6.982,6.982,0,0,1-2.846.755,1.51,1.51,0,0,1-.717-.1c-.325-.068-.43-.226-.332-.468a5.7,5.7,0,0,1,.2-.755,14.169,14.169,0,0,0,3.51-.627,19.852,19.852,0,0,0,3.367-1.253,8.3,8.3,0,0,0,3.072-2.2,4.227,4.227,0,0,0,.853-1.865,2.853,2.853,0,0,0-2.785-3.3,10.568,10.568,0,0,0-4.393,1,13.671,13.671,0,0,0-3.691,2.506,15.309,15.309,0,0,0-2.6,3.261,9.625,9.625,0,0,0-1.253,3.238,3.714,3.714,0,0,0,.226,2.023m11.089-8.56v.045c0,.159-.242.377-.755.664a10.221,10.221,0,0,1-2.023.883c-.4.113-1.064.272-1.97.483s-1.359.423-1.344.611c.627-.468,1.283-.944,1.978-1.427a9.94,9.94,0,0,1,2.446-1.178,3.548,3.548,0,0,1,1.034-.189c.362,0,.551,0,.581.106m5.141.687a2.318,2.318,0,0,0,.627,1.789,7.065,7.065,0,0,0,1.932,1.359c.838.43,1.412.755,1.706.944s.423.4.355.611a4.386,4.386,0,0,1-1.978,1.064,8.3,8.3,0,0,1-2.77.566c-.325.075-.453.121-.377.128a1.607,1.607,0,0,1,.211-.694,1.26,1.26,0,0,1,.491-.415c.2-.106.679-.325,1.419-.664-.2-1.117-.755-1.706-1.759-1.766a3.94,3.94,0,0,0-1.464.355,5.722,5.722,0,0,0-1.412.883,3.669,3.669,0,0,0-.906,1.193,4.077,4.077,0,0,0-.34,1.072,2.265,2.265,0,0,0,.6,1.895,3.684,3.684,0,0,0,2.068,1.049,8.364,8.364,0,0,0,1.3.06,13.912,13.912,0,0,0,2.5-.249,9.533,9.533,0,0,0,2.348-.672,11.483,11.483,0,0,0,2.642-1.593,4.447,4.447,0,0,0,1.51-2.038,2.265,2.265,0,0,0-.506-1.827,8.07,8.07,0,0,0-1.872-1.51,13.9,13.9,0,0,1-1.668-1.132c-.279-.249-.4-.483-.355-.71a5.337,5.337,0,0,1,1.4-.755,5.752,5.752,0,0,1,2.083-.34,6.794,6.794,0,0,0,1.563-.174c-.113-.166-.377-.189-.793-.06a4.733,4.733,0,0,0-1.193.589,2.023,2.023,0,0,0-.377.906,1.713,1.713,0,0,0,.664,1.646,5.428,5.428,0,0,0,1.744-.264,5.594,5.594,0,0,0,1.381-.672,15.847,15.847,0,0,0,1.51-1.17c.091-.234.181-.491.272-.755a5.14,5.14,0,0,0,.159-.649,1.283,1.283,0,0,0-.279-.755c-.2-.279-.34-.476-.438-.589a1.676,1.676,0,0,0-.793-.657,5.691,5.691,0,0,0-1.366-.453,8.3,8.3,0,0,0-1.57-.128,6.476,6.476,0,0,0-1.329.121,13.489,13.489,0,0,0-4.846,1.729,4.182,4.182,0,0,0-2.031,2.718" transform="translate(-15.826 -18.055)"/>
  </g>
</svg>
