<svg xmlns="http://www.w3.org/2000/svg" width="125.08" height="123.702" viewBox="0 0 125.08 123.702">
  <g id="surface41" transform="translate(-30.578 -23.359)">
    <path id="Path_1" data-name="Path 1" d="M138.739,371.033a75.828,75.828,0,0,0,8.474-1.664,27.968,27.968,0,0,0,6.447-2.36q2.355-1.3,1.934-2.807t-5.235-3.1a72.5,72.5,0,0,1-13.783,3.249,143.958,143.958,0,0,1-15.514,1.331q-7.955.265-16.32-.083t-16.2-1Q83,364.18,77.266,363.364T65.906,361.9q-5.615-.649-10.9-.925a58.927,58.927,0,0,0-10.091.3,24.011,24.011,0,0,0-5.09,1.217,27.421,27.421,0,0,0-3.863,1.773,24.809,24.809,0,0,0-2.969,1.95q-1.273.992-2.412,1.768a59.49,59.49,0,0,1,14.583-2.922,119.252,119.252,0,0,1,15.129-.161q7.549.406,14.994,1.347t14.173,1.591q5.709.5,11.885.962t12.5.5q6.323.041,13.086-.468a124.457,124.457,0,0,0,14.084-1.9,62.143,62.143,0,0,1-15.431,2.657q-8.775.515-18.254.161t-19.138-1.3q-9.661-.946-17.75-1.742t-14.318-1.18q-6.223-.38-8.9.354,5.636.259,12.057,1.045T72.3,368.589q6.592.879,12.758,1.726t11.282,1.222q4.43.411,10.1.6t11.277.135q5.605-.053,11.126-.343t9.9-.894" transform="translate(0 -225.22)" fill="#6dfc3a"/>
    <path id="Path_2" data-name="Path 2" d="M131.677,27A16.648,16.648,0,0,0,120.6,23.359a13.413,13.413,0,0,0-8.968,3.083l-26.2,21.441Q79.124,53.067,79.125,60.5q0,7.284,6.868,11.35l18.639,11.209,32.65-26.484a32.92,32.92,0,0,1,11.771-5.745A34.962,34.962,0,0,1,158.442,49L131.677,27" transform="translate(-32.393 0)" fill="#fffb34"/>
    <path id="Path_3" data-name="Path 3" d="M275.45,172.256a3.074,3.074,0,0,0-.983-2.241L245.04,146.328l-28.87,23.687a3.258,3.258,0,0,0,.983,5.324q5.605,2.381,7.144,3.925,2.386,2.24,2.386,7.284v17.24q0,6.3-2.943,10.227a8.768,8.768,0,0,1-5.75,3.645h37.418a8.282,8.282,0,0,0,5.6-3.645q2.942-3.925,2.943-10.227v-17.24q0-5.044,2.246-7.284,1.679-1.544,7.284-3.925a3.075,3.075,0,0,0,1.965-3.083" transform="translate(-123.183 -82.052)" fill="#0077fa"/>
    <path id="Path_4" data-name="Path 4" d="M124.2,202.807,73.469,173.234v24.8q0,5.886,4.2,12.051a26.1,26.1,0,0,0,7.991,8.267L109.9,232.795a4.275,4.275,0,0,0,2.381.561,12.252,12.252,0,0,0,7.57-2.667,11.292,11.292,0,0,0,4.341-9.249V202.807" transform="translate(-28.619 -100.006)" fill="#ff812a"/>
  </g>
</svg>
