<svg xmlns="http://www.w3.org/2000/svg" width="20" height="20" viewBox="0 0 20 20">
  <g id="Group_21716" data-name="Group 21716" transform="translate(13448.048 -2850)">
    <path id="Exclusion_8" data-name="Exclusion 8" d="M10,20a9.279,9.279,0,0,1-4.387-1.021H1.837a.808.808,0,0,1-.816-.816V14.387A9.279,9.279,0,0,1,0,10,10,10,0,1,1,10,20Zm0-6.53A1.105,1.105,0,0,0,8.979,14.49,1.105,1.105,0,0,0,10,15.511a1.105,1.105,0,0,0,1.021-1.021A1.105,1.105,0,0,0,10,13.469ZM9.9,6.021a1.241,1.241,0,0,1,1.224,1.224,1.486,1.486,0,0,1-.2.711,5.679,5.679,0,0,1-.615.82l-.046.063-.061.084a4.584,4.584,0,0,0-1.118,2.506.75.75,0,0,0,.816.816.808.808,0,0,0,.816-.816A2.968,2.968,0,0,1,11.632,9.8a5.621,5.621,0,0,0,.707-.908l0-.006,0-.005a2.981,2.981,0,0,0,.51-1.53A2.8,2.8,0,0,0,10,4.49,2.86,2.86,0,0,0,7.143,7.348a.644.644,0,0,0,.714.714.808.808,0,0,0,.816-.816A1.308,1.308,0,0,1,9.9,6.021Z" transform="translate(-13448.048 2850)" fill="#6dfc3a"/>
  </g>
</svg>
