<svg xmlns="http://www.w3.org/2000/svg" width="14.214" height="12.793" viewBox="0 0 14.214 12.793">
  <path id="_002-attention" data-name="002-attention" d="M16.046,13.17c-.33-.7-.727-1.6-1.19-2.431-.463-.9-.925-1.727-1.322-2.495a53.271,53.271,0,0,0-2.974-4.478A1.832,1.832,0,0,0,9.107,3a1.672,1.672,0,0,0-1.454.768C6.728,5.047,5.539,6.838,4.68,8.245c-.859,1.471-1.85,3.518-2.511,4.925a1.707,1.707,0,0,0,.066,1.6,1.9,1.9,0,0,0,1.454.832c1.586.064,3.767.192,5.419.192s3.9-.128,5.419-.192a1.733,1.733,0,0,0,1.454-.832A1.707,1.707,0,0,0,16.046,13.17ZM8.578,8.309A.513.513,0,0,1,9.107,7.8a.479.479,0,0,1,.529.512v2.559a.513.513,0,0,1-.529.512.479.479,0,0,1-.529-.512Zm.529,5.117a.64.64,0,1,1,.661-.64A.7.7,0,0,1,9.107,13.426Z" transform="translate(-2 -3)" fill="#f30"/>
</svg>
