<svg xmlns="http://www.w3.org/2000/svg" width="20" height="18.974" viewBox="0 0 20 18.974">
  <g id="_055-notebook" data-name="055-notebook" transform="translate(-1.75 -3.026)">
    <path id="Path_111" data-name="Path 111" d="M21.412,5.9a2.759,2.759,0,0,0-2.564-2.544c-.667-.051-1.426-.1-2.226-.144-1.684-.072-1.833-.148-3.59-.185H10.468c-1.054.029-1.931.04-3.59.185-.8,0-1.559.092-2.236.144a2.728,2.728,0,0,0-1.744.79A2.779,2.779,0,0,0,2.088,5.9c-.154,1.9-.338,4.595-.338,6.615s.185,4.718.338,6.626a2.759,2.759,0,0,0,2.554,2.533c1.672.123,4.8.328,7.108.328s5.436-.205,7.1-.328a2.759,2.759,0,0,0,2.564-2.533c.154-1.908.338-4.605.338-6.626s-.185-4.718-.338-6.615ZM11.75,15.846h-4.1a.769.769,0,0,1,0-1.538h4.1a.769.769,0,0,1,0,1.538Zm4.1-4.1H7.647a.769.769,0,0,1,0-1.538h8.205a.769.769,0,0,1,0,1.538Z"/>
  </g>
</svg>
