<svg xmlns="http://www.w3.org/2000/svg" width="20" height="20" viewBox="0 0 20 20">
  <g id="Group_21921" data-name="Group 21921" transform="translate(13599.952 -2850)">
    <g id="_008-category" data-name="008-category" transform="translate(-13601.952 2848)">
      <path id="Path_46" data-name="Path 46" d="M9.077,2.41A11.15,11.15,0,0,0,6.41,2a11.15,11.15,0,0,0-2.667.41A1.525,1.525,0,0,0,2.41,3.744,11.15,11.15,0,0,0,2,6.41a21.144,21.144,0,0,0,.308,2.667A1.634,1.634,0,0,0,3.641,10.41a21.136,21.136,0,0,0,2.667.308,21.136,21.136,0,0,0,2.667-.308,1.634,1.634,0,0,0,1.333-1.333,21.156,21.156,0,0,0,.308-2.667,21.156,21.156,0,0,0-.308-2.667A1.339,1.339,0,0,0,9.077,2.41Z" fill="#fff"/>
      <path id="Path_47" data-name="Path 47" d="M9.077,13.692a21.137,21.137,0,0,0-2.667-.308,21.137,21.137,0,0,0-2.667.308A1.634,1.634,0,0,0,2.41,15.026,21.146,21.146,0,0,0,2.1,17.692a21.142,21.142,0,0,0,.308,2.667,1.634,1.634,0,0,0,1.333,1.333A21.155,21.155,0,0,0,6.41,22a21.155,21.155,0,0,0,2.667-.308,1.634,1.634,0,0,0,1.333-1.333,21.153,21.153,0,0,0,.308-2.667,21.157,21.157,0,0,0-.308-2.667,1.525,1.525,0,0,0-1.333-1.333Z" fill="#fff"/>
      <path id="Path_48" data-name="Path 48" d="M15.026,10.41a21.139,21.139,0,0,0,2.667.308,21.135,21.135,0,0,0,2.667-.308,1.634,1.634,0,0,0,1.333-1.333A21.136,21.136,0,0,0,22,6.41a21.137,21.137,0,0,0-.308-2.667A1.634,1.634,0,0,0,20.359,2.41,21.14,21.14,0,0,0,17.692,2.1a21.144,21.144,0,0,0-2.667.308,1.634,1.634,0,0,0-1.333,1.333,21.137,21.137,0,0,0-.308,2.667,21.136,21.136,0,0,0,.308,2.667,1.525,1.525,0,0,0,1.333,1.333Z" fill="#fff"/>
      <path id="Path_49" data-name="Path 49" d="M20.359,13.692a21.135,21.135,0,0,0-2.667-.308,21.139,21.139,0,0,0-2.667.308,1.634,1.634,0,0,0-1.333,1.333,21.139,21.139,0,0,0-.308,2.667,21.135,21.135,0,0,0,.308,2.667,1.634,1.634,0,0,0,1.333,1.333A21.157,21.157,0,0,0,17.692,22a21.153,21.153,0,0,0,2.667-.308,1.634,1.634,0,0,0,1.333-1.333A21.135,21.135,0,0,0,22,17.692a21.139,21.139,0,0,0-.308-2.667,1.525,1.525,0,0,0-1.333-1.333Z" fill="#fff"/>
    </g>
  </g>
</svg>
