<svg xmlns="http://www.w3.org/2000/svg" width="20" height="20" viewBox="0 0 20 20">
  <path id="_014-chat" data-name="014-chat" d="M12,2A10.016,10.016,0,0,0,2,12a9.256,9.256,0,0,0,1.02,4.388v3.775a.8.8,0,0,0,.816.816H7.612A9.256,9.256,0,0,0,12,22,10,10,0,0,0,12,2ZM8.939,13.02A1.1,1.1,0,0,1,7.918,12a1.1,1.1,0,0,1,1.02-1.02A1.1,1.1,0,0,1,9.959,12,1.1,1.1,0,0,1,8.939,13.02Zm3.061,0A1.1,1.1,0,0,1,10.98,12,1.1,1.1,0,0,1,12,10.98,1.1,1.1,0,0,1,13.02,12,1.1,1.1,0,0,1,12,13.02Zm3.061,0A1.1,1.1,0,0,1,14.041,12a1.02,1.02,0,1,1,2.041,0A1.1,1.1,0,0,1,15.061,13.02Z" transform="translate(-2 -2)" fill="#fff"/>
</svg>
