<svg xmlns="http://www.w3.org/2000/svg" width="48" height="48" viewBox="0 0 48 48">
  <path id="_063-question" data-name="063-question" d="M26,2A24,24,0,1,0,50,26,24.039,24.039,0,0,0,26,2Zm0,37.469a2.449,2.449,0,1,1,0-4.9,2.449,2.449,0,0,1,0,4.9Zm5.633-15.918a13.46,13.46,0,0,1-1.714,2.2c-1.224,1.469-2.2,2.694-2.2,3.918a1.931,1.931,0,0,1-1.959,1.959A1.8,1.8,0,0,1,23.8,29.673c0-2.449,1.714-4.653,2.939-6.367a13.592,13.592,0,0,0,1.47-1.959,3.54,3.54,0,0,0,.49-1.714,2.978,2.978,0,0,0-2.939-2.939,3.16,3.16,0,0,0-2.939,2.939,1.932,1.932,0,0,1-1.959,1.959,1.547,1.547,0,0,1-1.714-1.714A6.845,6.845,0,0,1,26,13.02a6.7,6.7,0,0,1,6.857,6.857,7.286,7.286,0,0,1-1.224,3.673Z" transform="translate(-2 -2)" fill="#efefef"/>
</svg>
