<svg xmlns="http://www.w3.org/2000/svg" width="20" height="20" viewBox="0 0 20 20">
  <path id="domicile" d="M21.884,15.3a29.39,29.39,0,0,1-.715,4.4A2.87,2.87,0,0,1,18.413,22H16.779a1.634,1.634,0,0,1-1.634-1.675V16.031a1.854,1.854,0,0,0-1.838-1.885H10.96a1.854,1.854,0,0,0-1.838,1.885v4.293A1.634,1.634,0,0,1,7.488,22H5.549a2.85,2.85,0,0,1-2.757-2.3,29.86,29.86,0,0,1-.715-4.4,35.338,35.338,0,0,1,.1-5.654A2.862,2.862,0,0,1,3.4,7.445l7.147-4.921A2.4,2.4,0,0,1,11.981,2a2.706,2.706,0,0,1,1.531.524l7.147,4.921a2.862,2.862,0,0,1,1.225,2.2,35.051,35.051,0,0,1,0,5.654Z" transform="translate(-2 -2)" fill="#fff"/>
</svg>
