<svg xmlns="http://www.w3.org/2000/svg" width="35" height="35" viewBox="0 0 35 35">
  <g id="Group_20742" data-name="Group 20742" transform="translate(-305 -31)">
    <g id="Group_822" data-name="Group 822" transform="translate(0 11)">
      <rect id="Rectangle_468" data-name="Rectangle 468" width="35" height="35" rx="17.5" transform="translate(305 20)" fill="#fff"/>
    </g>
    <path id="_064-dm" data-name="064-dm" d="M17.329,3.839,12.347,16.558a1.314,1.314,0,0,1-2.453,0l-2.069-4.9a.075.075,0,0,0-.077-.077L2.843,9.509a1.313,1.313,0,0,1,0-2.452l12.723-4.98A.973.973,0,0,1,16.026,2a1.27,1.27,0,0,1,.92.383,1.314,1.314,0,0,1,.383,1.456Z" transform="translate(312.3 38.3)"/>
  </g>
</svg>
