<svg xmlns="http://www.w3.org/2000/svg" width="17.633" height="14.106" viewBox="0 0 17.633 14.106">
  <g id="_049-message" data-name="049-message" transform="translate(-2 -4)">
    <path id="Path_90" data-name="Path 90" d="M19.649,8.585v7.483a2.39,2.39,0,0,1-2.258,2.322c-1.9.172-4.515.258-6.5.258s-4.605-.172-6.5-.258A2.39,2.39,0,0,1,2.13,16.069V8.585l1.355.688,6.231,3.269a2.8,2.8,0,0,0,2.348,0l6.231-3.269Z" transform="translate(-0.015 -0.543)" fill="#6dfc3a"/>
    <path id="Path_91" data-name="Path 91" d="M19.543,6.15a.6.6,0,0,1-.271.516l-1.084.516L11.325,10.8a1.2,1.2,0,0,1-1.084,0L2.295,6.666c-.181-.086-.361-.258-.271-.43A2.453,2.453,0,0,1,4.282,4.258C6.178,4.086,8.8,4,10.783,4s4.7.172,6.5.258A2.375,2.375,0,0,1,19.543,6.15Z" fill="#6dfc3a"/>
  </g>
</svg>
