<svg xmlns="http://www.w3.org/2000/svg" width="30" height="30" viewBox="0 0 30 30">
  <g id="Group_22721" data-name="Group 22721" transform="translate(-190 -245)">
    <rect id="Rectangle_8379" data-name="Rectangle 8379" width="30" height="30" rx="15" transform="translate(190 245)"/>
    <path id="_003-bag" data-name="003-bag" d="M15.461,8.544c-.069-1.532-.345-3.55-.552-4.943A1.871,1.871,0,0,0,13.045,2H4.485A1.871,1.871,0,0,0,2.621,3.6c-.207,1.462-.414,3.411-.552,4.943C2,10.006,2,12.025,2,13.487A1.823,1.823,0,0,0,3.726,15.3c1.45.139,3.451.209,4.97.209s3.52-.139,4.97-.209a1.823,1.823,0,0,0,1.726-1.81,39.372,39.372,0,0,0,.069-4.943Zm-6.7.07A3.328,3.328,0,0,1,5.451,5.272a.552.552,0,1,1,1.1,0A2.234,2.234,0,0,0,8.765,7.5a2.281,2.281,0,0,0,2.209-2.228.547.547,0,0,1,.552-.557.51.51,0,0,1,.552.557A3.374,3.374,0,0,1,8.765,8.614Z" transform="translate(196.247 251.247)" fill="#fff"/>
  </g>
</svg>
