<svg xmlns="http://www.w3.org/2000/svg" width="28.662" height="19.796" viewBox="0 0 28.662 19.796">
  <path id="cc-paypal" d="M9.268,10.027a1.073,1.073,0,0,1-.317.793,1.059,1.059,0,0,1-.778.316.808.808,0,0,1-.579-.206.74.74,0,0,1-.217-.567,1.129,1.129,0,0,1,.311-.806,1.016,1.016,0,0,1,.771-.328.82.82,0,0,1,.579.213A.756.756,0,0,1,9.268,10.027Zm9.766-1.92a.846.846,0,0,1-.274.735,1.419,1.419,0,0,1-.821.193l-.4.013.212-1.379a.151.151,0,0,1,.162-.142h.224a2.92,2.92,0,0,1,.436.026.607.607,0,0,1,.311.161.5.5,0,0,1,.15.393Zm4.366,1.92a1.078,1.078,0,0,1-.317.786,1.038,1.038,0,0,1-.765.323.828.828,0,0,1-.584-.206.734.734,0,0,1-.224-.567,1.129,1.129,0,0,1,.311-.806,1.016,1.016,0,0,1,.771-.328.82.82,0,0,1,.579.213.755.755,0,0,1,.229.586ZM6.382,7.823a1.259,1.259,0,0,0-.479-1.1,2.107,2.107,0,0,0-1.25-.341H2.662a.239.239,0,0,0-.261.245l-.809,5.258a.176.176,0,0,0,.037.142.152.152,0,0,0,.124.064H2.7a.245.245,0,0,0,.274-.245L3.2,10.426a.255.255,0,0,1,.087-.167.377.377,0,0,1,.186-.084,1.166,1.166,0,0,1,.212-.019q.1,0,.236.013t.174.013a2.236,2.236,0,0,0,1.679-.625A2.382,2.382,0,0,0,6.382,7.823Zm3.844,4.021.51-3.364a.176.176,0,0,0-.037-.142.152.152,0,0,0-.124-.064H9.629q-.174,0-.212.426a1.3,1.3,0,0,0-1.182-.516,1.978,1.978,0,0,0-1.524.7,2.364,2.364,0,0,0-.628,1.636,1.685,1.685,0,0,0,.429,1.212,1.513,1.513,0,0,0,1.15.451,1.873,1.873,0,0,0,.721-.155,1.583,1.583,0,0,0,.6-.412.9.9,0,0,0-.05.271q0,.206.162.206h.858a.253.253,0,0,0,.274-.245Zm5.56-3.389a.184.184,0,0,0-.05-.122.147.147,0,0,0-.112-.058h-.958a.261.261,0,0,0-.224.129l-1.318,2.011-.548-1.933a.263.263,0,0,0-.274-.206h-.933a.147.147,0,0,0-.112.058.184.184,0,0,0-.05.122q0,.026.243.76t.522,1.585q.279.85.292.9a12.028,12.028,0,0,0-1.02,1.547q0,.167.162.167h.958a.261.261,0,0,0,.224-.129l3.172-4.743a.129.129,0,0,0,.025-.09Zm4.728-.632a1.259,1.259,0,0,0-.479-1.1,2.107,2.107,0,0,0-1.25-.341H16.807a.245.245,0,0,0-.274.245l-.809,5.258a.176.176,0,0,0,.037.142.152.152,0,0,0,.124.064h1.02a.2.2,0,0,0,.2-.167l.224-1.5a.255.255,0,0,1,.087-.167.377.377,0,0,1,.186-.084,1.166,1.166,0,0,1,.212-.019q.1,0,.236.013t.174.013A2.236,2.236,0,0,0,19.9,9.556a2.382,2.382,0,0,0,.61-1.734Zm3.844,4.021.51-3.364a.176.176,0,0,0-.037-.142.152.152,0,0,0-.124-.064h-.946q-.174,0-.212.426a1.283,1.283,0,0,0-1.182-.516,1.978,1.978,0,0,0-1.524.7,2.364,2.364,0,0,0-.628,1.636,1.685,1.685,0,0,0,.429,1.212,1.513,1.513,0,0,0,1.15.451,1.9,1.9,0,0,0,.734-.155,1.462,1.462,0,0,0,.584-.412,1.093,1.093,0,0,1-.025.116.734.734,0,0,0-.025.155q0,.206.162.206h.858a.253.253,0,0,0,.274-.245ZM27.07,6.572V6.559q0-.181-.162-.181h-.92a.151.151,0,0,0-.162.142l-.809,5.361L25,11.907a.184.184,0,0,0,.05.122.158.158,0,0,0,.124.058H26a.239.239,0,0,0,.261-.245ZM4.877,8.3a.736.736,0,0,1-.323.593,1.591,1.591,0,0,1-.747.142L3.4,9.048l.212-1.379a.151.151,0,0,1,.162-.142h.236a1.343,1.343,0,0,1,.721.148q.224.148.15.625ZM28.662,1.65v16.5a1.612,1.612,0,0,1-.473,1.16,1.509,1.509,0,0,1-1.119.49H1.592a1.5,1.5,0,0,1-1.119-.49A1.618,1.618,0,0,1,0,18.146V1.65A1.612,1.612,0,0,1,.473.49,1.509,1.509,0,0,1,1.592,0H27.07a1.5,1.5,0,0,1,1.119.49A1.618,1.618,0,0,1,28.662,1.65Z"/>
</svg>
