<svg xmlns="http://www.w3.org/2000/svg" width="35" height="35" viewBox="0 0 35 35">
  <g id="Group_22711" data-name="Group 22711" transform="translate(-305 -30)">
    <rect id="Rectangle_8360" data-name="Rectangle 8360" width="35" height="35" rx="17.5" transform="translate(340 65) rotate(180)" fill="#fff"/>
    <path id="Exclusion_12" data-name="Exclusion 12" d="M8,16a7.423,7.423,0,0,1-3.51-.816H1.47a.647.647,0,0,1-.653-.653V11.51A7.423,7.423,0,0,1,0,8a8,8,0,1,1,8,8Zm0-5.224a.884.884,0,0,0-.816.816A.884.884,0,0,0,8,12.408a.884.884,0,0,0,.816-.816A.884.884,0,0,0,8,10.775ZM7.919,4.817A.993.993,0,0,1,8.9,5.8a1.189,1.189,0,0,1-.161.569,4.543,4.543,0,0,1-.492.656l-.036.051-.049.067a3.667,3.667,0,0,0-.894,2,.6.6,0,0,0,.653.653.647.647,0,0,0,.653-.653,2.375,2.375,0,0,1,.734-1.306,4.5,4.5,0,0,0,.566-.726l0,0,0,0a2.385,2.385,0,0,0,.408-1.224A2.236,2.236,0,0,0,8,3.592,2.288,2.288,0,0,0,5.715,5.878a.515.515,0,0,0,.571.571A.647.647,0,0,0,6.939,5.8,1.046,1.046,0,0,1,7.919,4.817Z" transform="translate(315 39)"/>
  </g>
</svg>
