<svg xmlns="http://www.w3.org/2000/svg" width="16.025" height="14.596" viewBox="0 0 16.025 14.596">
  <g id="rating.stars" transform="translate(0.512 0.5)">
    <path id="star" d="M27.195.46,25.364,3.971l-4.1.565a.838.838,0,0,0-.5,1.448l2.964,2.732-.7,3.859a.887.887,0,0,0,1.3.894L28,11.647l3.664,1.822a.888.888,0,0,0,1.3-.894l-.7-3.859,2.964-2.732a.838.838,0,0,0-.5-1.448l-4.1-.565L28.8.46A.921.921,0,0,0,27.195.46Z" transform="translate(-20.5 0.013)" fill="#fffb34" stroke="#dec60a" stroke-width="1"/>
  </g>
</svg>
