<svg xmlns="http://www.w3.org/2000/svg" width="20" height="20" viewBox="0 0 20 20">
  <g id="Group_22725" data-name="Group 22725" transform="translate(-66 -44)">
    <rect id="Rectangle_8090" data-name="Rectangle 8090" width="20" height="20" rx="10" transform="translate(66 44)" fill="#6dfc3a"/>
    <path id="Icon_weather-refresh" data-name="Icon weather-refresh" d="M11.724,15.938a4.147,4.147,0,0,0,.577,2.13,4.223,4.223,0,0,0,1.553,1.545,4.111,4.111,0,0,0,2.122.569,4.2,4.2,0,0,0,2.138-.561,4.1,4.1,0,0,0,1.536-1.536,4.221,4.221,0,0,0,.561-2.138.694.694,0,0,0-.2-.5.621.621,0,0,0-.48-.2.694.694,0,0,0-.691.7,2.887,2.887,0,0,1-2.886,2.886,2.714,2.714,0,0,1-2.008-.845,2.8,2.8,0,0,1-.829-2.04,3,3,0,0,1,.642-1.878,2.021,2.021,0,0,1,1.5-.894l-.309.3a.693.693,0,0,0-.2.471.717.717,0,0,0,.2.488.673.673,0,0,0,.984,0l1.5-1.48a.594.594,0,0,0,.2-.5.541.541,0,0,0-.2-.463l-1.48-1.52a.7.7,0,0,0-.976.008.663.663,0,0,0-.2.488.68.68,0,0,0,.2.5l.309.293a4.182,4.182,0,0,0-2.536,1.463A4.09,4.09,0,0,0,11.724,15.938Z" transform="translate(60.276 38.188)"/>
  </g>
</svg>
