<svg xmlns="http://www.w3.org/2000/svg" width="45" height="45" viewBox="0 0 45 45">
  <g id="Group_22723" data-name="Group 22723" transform="translate(-304 -30)">
    <g id="Group_822" data-name="Group 822" transform="translate(304 30)">
      <rect id="Rectangle_468" data-name="Rectangle 468" width="45" height="45" rx="22.5"/>
    </g>
    <path id="_065-rocket" data-name="065-rocket" d="M20,10.986a1.486,1.486,0,0,1-.814,1.352c-1.809,1.082-5.247,2.975-7.78,4.237-2.171,1.082-5.157,2.344-7.237,3.245a1.683,1.683,0,0,1-.633.18,1.672,1.672,0,0,1-1.086-.451,1.678,1.678,0,0,1-.362-1.713l1.9-5.589a.791.791,0,0,1,.814-.541H9.325a.712.712,0,0,0,.724-.721.665.665,0,0,0-.724-.721H4.8a.868.868,0,0,1-.814-.631l-1.9-5.589A1.444,1.444,0,0,1,2.54,2.423a1.387,1.387,0,0,1,1.628-.27c1.719.721,4.976,2.163,7.237,3.245,2.533,1.262,5.971,3.245,7.78,4.237A1.486,1.486,0,0,1,20,10.986Z" transform="translate(316 42)" fill="#fff"/>
  </g>
</svg>
