<svg xmlns="http://www.w3.org/2000/svg" width="60" height="60" viewBox="0 0 60 60">
  <g id="Group_22735" data-name="Group 22735" transform="translate(-150 -517)">
    <g id="Group_20785" data-name="Group 20785" transform="translate(124 486)">
      <rect id="anthony-metcalfe-QQsRTGAZp9o-unsplash" width="60" height="60" rx="30" transform="translate(26 31)"/>
    </g>
    <path id="_074-shield" data-name="074-shield" d="M27.9,5.355,17.67,2.224a3.871,3.871,0,0,0-2.6,0L5,5.355A3.879,3.879,0,0,0,2.1,9.977l1.68,8.946a13.4,13.4,0,0,0,6.107,9.393C12.784,30.105,14.921,31,16.6,31s3.817-.895,6.718-2.684a13.405,13.405,0,0,0,6.108-9.393l1.527-8.946A4.112,4.112,0,0,0,27.9,5.355Zm-6.107,8.8-6.108,5.964c-.305.149-.458.3-.763.3a1.181,1.181,0,0,1-.763-.3L11.1,17.133a1.15,1.15,0,0,1,0-1.64,1.219,1.219,0,0,1,1.68,0l2.29,2.236,5.344-5.218a1.219,1.219,0,0,1,1.68,0,1.6,1.6,0,0,1-.305,1.64Z" transform="translate(164 531)" fill="#6dfc3a"/>
  </g>
</svg>
