<svg xmlns="http://www.w3.org/2000/svg" width="14.885" height="20" viewBox="0 0 14.885 20">
  <g id="Group_659" data-name="Group 659" transform="translate(13403.146 -2727)">
    <path id="Path_37" data-name="Path 37" d="M9.993,12.571a4.834,4.834,0,0,0,5.988,0A4.613,4.613,0,0,0,17.8,8.805a4.418,4.418,0,0,0-1.172-3.117A4.848,4.848,0,0,0,12.987,4,4.647,4.647,0,0,0,9.342,5.688a4.53,4.53,0,0,0-1.3,3.117A4.731,4.731,0,0,0,9.993,12.571Z" transform="translate(-13408.453 2723)" fill="#fff"/>
    <path id="Path_38" data-name="Path 38" d="M16.138,13.351H10.67a5.582,5.582,0,0,0-4.817,5.455,1.863,1.863,0,0,0,.911,1.688c.911.52,2.734,1.169,6.509,1.169s5.6-.649,6.509-1.169a1.892,1.892,0,0,0,.911-1.688c.391-2.727-1.823-5.065-4.556-5.455Z" transform="translate(-13409 2725.338)" fill="#fff"/>
  </g>
</svg>
