<svg xmlns="http://www.w3.org/2000/svg" width="28.662" height="18" viewBox="0 0 28.662 18">
  <path id="visa" d="M1.146,6.7A1.147,1.147,0,0,0,0,7.842V23.549A1.147,1.147,0,0,0,1.146,24.7H27.516a1.147,1.147,0,0,0,1.146-1.146V7.842A1.147,1.147,0,0,0,27.516,6.7H1.146Zm15.972,5.365a4.393,4.393,0,0,1,1.613.3l-.244,1.533-.161-.081a3.133,3.133,0,0,0-1.347-.271c-.7,0-1.03.314-1.03.608,0,.331.381.549,1.01.877,1.038.5,1.517,1.117,1.511,1.921-.014,1.468-1.242,2.416-3.133,2.416a5.36,5.36,0,0,1-2-.377l.252-1.584.232.113a3.556,3.556,0,0,0,1.693.371c.518,0,1.072-.217,1.076-.69,0-.31-.232-.53-.932-.877-.682-.338-1.588-.905-1.577-1.921.01-1.375,1.263-2.334,3.041-2.334Zm-14.583.225h2.9a.754.754,0,0,1,.816.565l.626,3.232v0l.188.968,1.764-4.767h1.908L7.905,19.263,6,19.264,4.482,13.634A5.1,5.1,0,0,1,6.6,15.427a5.045,5.045,0,0,0-.459-.781,6.309,6.309,0,0,0-.916-.887,6.789,6.789,0,0,0-2.711-1.335l.022-.139Zm8.965.008h1.865L12.2,19.26H10.333L11.5,12.293Zm10.538,0h1.413L24.93,19.26h-1.7s-.168-.8-.223-1.045l-2.342,0c-.071.189-.385,1.047-.385,1.047H18.365l2.715-6.388a.906.906,0,0,1,.958-.579Zm.139,1.873c-.092.259-.252.678-.241.659,0,0-.574,1.532-.725,1.929h1.51c-.073-.345-.421-1.992-.421-1.992l-.123-.595Z" transform="translate(0 -6.696)"/>
</svg>
