<svg xmlns="http://www.w3.org/2000/svg" width="60" height="60" viewBox="0 0 60 60">
  <g id="Group_22716" data-name="Group 22716" transform="translate(-150 -517)">
    <g id="Group_20785" data-name="Group 20785" transform="translate(124 486)">
      <rect id="anthony-metcalfe-QQsRTGAZp9o-unsplash" width="60" height="60" rx="30" transform="translate(26 31)"/>
    </g>
    <path id="_002-attention" data-name="002-attention" d="M28.112,21.907C27.5,20.6,26.761,18.934,25.9,17.388c-.86-1.665-1.72-3.211-2.457-4.638a99.033,99.033,0,0,0-5.528-8.324A3.406,3.406,0,0,0,15.212,3a3.109,3.109,0,0,0-2.7,1.427c-1.72,2.378-3.931,5.708-5.528,8.324-1.6,2.735-3.44,6.54-4.668,9.156a3.174,3.174,0,0,0,.123,2.973,3.525,3.525,0,0,0,2.7,1.546c2.948.119,7,.357,10.074.357s7.248-.238,10.074-.357a3.221,3.221,0,0,0,2.7-1.546A3.174,3.174,0,0,0,28.112,21.907ZM14.23,12.87a.953.953,0,0,1,.983-.951.89.89,0,0,1,.983.951v4.756a.953.953,0,0,1-.983.951.89.89,0,0,1-.983-.951Zm.983,9.513a1.3,1.3,0,0,1-1.228-1.189,1.229,1.229,0,0,1,2.457,0A1.3,1.3,0,0,1,15.212,22.383Z" transform="translate(164.788 531.609)" fill="#fffb34"/>
  </g>
</svg>
